<svg width="100" height="100" viewBox="0 0 100 100" fill="none" xmlns="http://www.w3.org/2000/svg">
<path d="M81 28H19C15.134 28 12 31.134 12 35V65C12 68.866 15.134 72 19 72H81C84.866 72 88 68.866 88 65V35C88 31.134 84.866 28 81 28Z" stroke="white" stroke-width="6" stroke-linecap="round" stroke-linejoin="round"/>
<path d="M18 34H26M74 34H82M18 66H26M74 66H82" stroke="white" stroke-width="4" stroke-linecap="round"/>
<path d="M50 62C56.6274 62 62 56.6274 62 50C62 43.3726 56.6274 38 50 38C43.3726 38 38 43.3726 38 50C38 56.6274 43.3726 62 50 62Z" stroke="white" stroke-width="5"/>
<path d="M54.1987 44.1263L53.7666 46.1552C53.3516 45.7401 52.7461 45.5326 51.9502 45.5326C51.1543 45.5326 50.5098 45.8182 50.0166 46.3895C49.7383 46.7118 49.5405 47.1146 49.4233 47.598H53.4517L53.2173 48.7333H49.2769C49.272 48.8456 49.2695 48.9896 49.2695 49.1654C49.2695 49.3363 49.2744 49.5145 49.2842 49.7001H53.0122L52.7778 50.8353H49.438C49.5601 51.3578 49.748 51.7679 50.002 52.0658C50.4902 52.642 51.125 52.9301 51.9062 52.9301C52.8438 52.9301 53.5908 52.642 54.1475 52.0658V54.307C53.5127 54.6244 52.7729 54.7831 51.9282 54.7831C50.5024 54.7831 49.3306 54.2948 48.4126 53.3182C47.7876 52.6542 47.375 51.8265 47.1748 50.8353H46.0908L46.3252 49.7001H47.043C47.0381 49.5829 47.0356 49.4584 47.0356 49.3265C47.0356 49.1019 47.0405 48.9042 47.0503 48.7333H46.0908L46.3252 47.598H47.1968C47.4019 46.6263 47.8096 45.8134 48.4199 45.1591C49.3428 44.1727 50.5562 43.6796 52.0601 43.6796C52.8804 43.6796 53.5933 43.8285 54.1987 44.1263Z" fill="white"/>
</svg>
