<svg width="50" height="50" viewBox="0 0 50 50" fill="none" xmlns="http://www.w3.org/2000/svg">
<g clip-path="url(#clip0_12_7)">
<mask id="mask0_12_7" style="mask-type:luminance" maskUnits="userSpaceOnUse" x="0" y="0" width="50" height="50">
<path d="M50 0H0V50H50V0Z" fill="white"/>
</mask>
<g mask="url(#mask0_12_7)">
<path d="M20 20V15C20 13.6739 20.5268 12.4021 21.4645 11.4645C22.4021 10.5268 23.6739 10 25 10C26.3261 10 27.5979 10.5268 28.5355 11.4645C29.4732 12.4021 30 13.6739 30 15V20" stroke="white" stroke-width="4.5" stroke-linecap="round" stroke-linejoin="round"/>
<path d="M34.5 20H15.5C13.567 20 12 21.567 12 23.5V34.5C12 36.433 13.567 38 15.5 38H34.5C36.433 38 38 36.433 38 34.5V23.5C38 21.567 36.433 20 34.5 20Z" stroke="white" stroke-width="4.5" stroke-linecap="round" stroke-linejoin="round"/>
<circle cx="25" cy="29" r="1.8" fill="white" />
</g>
</g>
<defs>
<clipPath id="clip0_12_7">
<rect width="50" height="50" fill="white"/>
</clipPath>
</defs>
</svg>
