<?xml version="1.0" encoding="UTF-8"?>
<svg id="Ebene_1" data-name="Ebene 1" xmlns="http://www.w3.org/2000/svg" viewBox="0 0 1336.165 814.012">
  <g id="Path">
    <g id="path7">
      <path d="M1122.986,598.952c-5.6,3.6-20.2-3.8-21.8-3.8-11,2.6-12.3.4-22.6-2.1-11.5-.7-23.1-2.1-34.5-3.1-2.7-.2-6,1.2-6.9,1.1-1.7-1-.3-3.4-3.5-2.2-.6-.8.7-3.1-2.6-3.8l-2,5-25.5-2.1c-.5-3,.7-1.6,2.5-2,4.1-.9,9.1-.2,13.1,1,1.3-5.5,2,3.7,4.4-1.9-6.1-2.2-12.4-1.1-19-2-1.5,4.5-3.2-2.1-7-.5s3,1.2,4,3c-2,6.9-19.1-2.7-25-.5,3.9-4.8,16.3-.2,20,0-1.1-5.4,0-3.8-5.2-3.2-6.5-2.1-6.1-2.1-12.1,0-1.2,0-2.9-1.3-5.7-1.8-1.2,1.8,3.9,2.4,2,4-11.3.6-29.2-2.3-41-3-17.6-.6-35.3-1.7-53-2.9,0,1.9-.2,3.8-.3,5.7,1.3,0,2.5.2,3.7.3,3.3.2,6.4-3.1,8.5,1.9-2-.6-7.1-.3-12.3-.2-.2,4-.4,7.9-.7,11.9,7.7.5,15.4.9,23.1,1.2,45,2.2,89.5,8.4,134,12,10.7-.2,18.7,1,29,2,2.5.3,6.3-1,8,1,3.6,0,5.2,1.4,8,1,1.4-1.8,6.3-.5,8,1,3,.5,7.7-1.3,10,1,2.2.2,5.6-.9,7,1,9.7,1.9,18.9,1.2,28,5v-21c-3.9,0-10.6,0-12.7-3h.1ZM898.586,586.052c-.2-1.4,4-1.9,4.6-1.9,2.3,0,3.6,1.5,4.9,1.5s8-3,10.5-.6c2.7,4.7-17.3.5-20,1ZM922.586,588.052c0-1.8,6.7-3.3,7-3,2.2,2.2-5.3,4-7,3ZM931.586,588.052c-.5-2.3,9.1-.5,11-1,1.5,4.4-8.4.2-11,1ZM998.986,594.052c-10.5-1.1-21.2-.9-31.4-3.6,2.6-3,6.7-.3,10,0h0c10.3,1.3,21.3,2.6,31.7,2.6s2.9,0,3.4,1.9c-5.3,2.3-8.9-.4-13.6-.9h-.1ZM1089.186,602.952c-17.4-2.2-34.5-5.4-52.1-4.9l-1.5-2c18.6-1.1,36.6,3.2,55,5,0,1.7.6,2.2-1.4,1.9ZM1094.486,602.652c-1.2-.2-2.2,1.8-1.9-1.6l9,1c-.7,2.7-5,.9-7.1.6ZM1104.586,603.052c2.3,0,5.9-.9,7,2-1.7-.2-6.3,0-7-2ZM1113.286,605.052c0-1.6,2.5-1.6,2.5,0s-2.5,1.6-2.5,0Z" fill="#014177"/>
      <path d="M927.086,575.052c-2.4-.2-3,2.5-4-1-5.4,3-13,.6-19.1,0-5.2-.5-9.7.2-15.9,0-1.9,0-4.1-.6-6.3-1,0,1.7,0,3.5-.2,5.2,4,.3,8,.6,12.1.7-1.1-2.2-13.8.5-8-4l.4,1.9c3.3-2.4,10.6,1.3,13,1.2.6,0,.5-1.9,1.2-2,2-.3,5.1,1.7,6.8,1.8,3.5.2,7.2-.4,11,0,2.4.3,3.3-.7,1.5,2.1h3c-.9-3.3,4.2-1.8,5.7-1.6,1.6.2,7.2-.3,6.3,2.6h2l.5-2c2.6,2.2,7.3-.7,6.5,3,4.5.3,9.2.7,14,1,2.6-5.2,14.3,3.1,15-3-15.3-2-30.3-3.2-45.5-5h0v.1Z" fill="#346892"/>
      <path d="M1120.886,623.252c-3.5-.7-7.8-.7-11.3-2.2-4.4-1.1-34.5-1.5-34-5h-4c-.2.4-5.9,2.9-5-1h-14.5c-7,.4-15-4.1-21.8-2.2-1.5-.2-2.5-1.6-3.2-1.8-.6-.2-.3,2-1,2s-5.2-.3-5.8-.4c-14.7-1.9-30.3-4-45.2-2.8-.3,0-.4-2.3-4-2.8-22.4-2.6-46.1-2.2-68.4-6.1-7.2-.9-14.7-.8-22.2-.8,0,2.4-.3,4.8-.4,7.2,4.5.2,11.6,0,14.7,0,.9,0,0-3.2,2.6-2-4.6,6.3.7.7,3.7,1.3,1.6.3,2.7,1.6,3.3,1.7,1.2.2,2.9-.3,4,0,3.3-1.2,9.2,1.2,11.5,1,.6,0,.5-2,1-2,16.6,4.9,37.7,2.7,54.1,7.6,3.9-.4,19.1-1.8,23,1.4h17c.2,0,1,1.5,2.1,1.8,2.1.4,6.2-2.5,8.4,1.2,2.6-.2,7.2-.3,8.1.2,5.9,2.8,0-2.1,3.4-2.2,2.1,3.4,5,.3,7.8,1,2.5,4.8,12.7-1.1,16.7,3,24.5-.4,49.7,7.6,74,8v-4.2c-5.8,2.2-9.7-.7-14.6-1.8h0v-.1h0Z" fill="#014177"/>
      <path d="M863.886,599.652c0,1.9,0,3.8-.2,5.7.5.2,1,.5,1.7.9,3.1-2.1,8.8,1.2,12,1h2.7c0-2.4.3-4.8.4-7.2-5.6,0-11.1,0-16.5-.6h-.1v.2h0Z" fill="#014177"/>
      <path d="M866.586,582.052c4.7.6,9.9,1.3,14.8,1.8,0-1.9.2-3.8.3-5.7-5.7-.4-11.3-.8-17-1.2,0,1.8,0,3.6-.2,5.3.5.4,1.1,1.2,1.1,1.8-.4,0-.8.2-1.2.2,0,4.1-.3,8.2-.4,12.4,5.5.4,11.1.8,16.6,1.1.2-4,.5-7.9.7-11.9-7.4.2-15,0-14.7-3.8h0Z" fill="#014177"/>
      <path d="M1085.586,590.052c2.1-2.6,10.4,1,12.5,1.1,13.8.3,24.5,3.6,37.5,4.9v4l-8-.5,8,1.5v1c-3.9,0-10.6,0-12.7-3-5.6,3.6-20.2-3.8-21.8-3.8-11.2,2.6-12.1.4-22.6-2.1,0-.6.2-1.6,0-2,2.3,0,8,3,7-1h0l.1-.1h0Z" fill="#7799b5"/>
      <path d="M1027.586,584.052c21.6,2.5,7.3,1.1,24-7,2.2,2.4-9.8,6.7-8,9,.3.4,8.4-2.2,10,1-5.6,3.4-.2-2.5-6,0,3.5,5,11.2,1.8,16.5,3l-.5-2c.2,0,.6-1.8,1.4-1.7,2.5,0,11.3,2.2,14.6,2.7-6.2-.8-1.3,1.4-1,2,.2.4,0,1.4,0,2-13.4,0-28.6-4.7-41.4-2-1.7-1-.3-3.4-3.5-2.2-.6-.8.7-3.1-2.6-3.8l-2,5-25.5-2.1c-.5-3,.7-1.7,2.5-2,4.1-.9,9.1-.2,13.1,1,1.3-5.5,2,3.6,4.4-1.9h1c-.6,2.1,1.3,2.2,3,3v-4h0Z" fill="#83a5b8"/>
      <path d="M1063.586,588.052l.5,2c-5.3-1.3-13.1,1.9-16.5-3,3.8-2,2.8,1,3.6,1.1.8,0,2.1-1.1,2.4-1.1,2.9,0,5.9,1.6,10,1Z" fill="#205787"/>
      <path d="M1079.586,589.052c.6,0,2.4,1.8,4,1,.5.2,1.4,0,2,0,1,4-4.7,1-7,1-.3-.6-5.2-2.8,1-2Z" fill="#014177"/>
      <path d="M1062.586,588.052c-3.6.5-5.8-.8-8-1l.5-2c2.2,3.9,6.2-.8,7.5,3Z" fill="#83a5b8"/>
      <path d="M1027.586,584.052v4c-1.7-.8-3.6-.9-3-3,1-.3,1.9-.9,3-1Z" fill="#014177"/>
      <path d="M1083.586,590.052c-1.6.8-3.4-.9-4-1,1.9.3,2.2.4,4,1Z" fill="#7799b5"/>
      <path d="M1037.586,611.052c-1.6,0-4.2-.6-5,1-2,1.7-4.1,0-5.5-1-.6-.2-.3,2-1,2-16.7-1.2-34.1-4.7-51-3.1-.3,0-.4-2.3-4-2.8-22.4-2.6-46-2.1-68.4-6.1h2l-1-2c45,2.2,89.5,8.4,134,12h-.1Z" fill="#439774"/>
      <path d="M903.586,599.052c-7.7-.2-15.3-1.1-23-1.7,0,.9,0,1.8-.2,2.7,8.1.3,16.3.6,24.1.9l-1-2h.1v.1h0Z" fill="#8aaeb8"/>
      <path d="M1090.586,601.052c0,1.7.6,2.2-1.4,1.9-17.4-2.2-34.5-5.4-52.1-4.9l-1.5-2c18.6-1.1,36.6,3.2,55,5Z" fill="#7fa0b8"/>
      <path d="M866.586,582.052c-.3,3.7,7.3,4,14.7,3.8v-2c-4.9-.5-10.1-1.2-14.8-1.8h.1Z" fill="#6d96ac"/>
      <path d="M893.586,586.052c-2-5-5.2-1.7-8.5-1.9-1.2,0-2.5-.2-3.7-.3v2c5.2,0,10.3-.4,12.3.2h-.1Z" fill="#6d96ac"/>
      <path d="M1012.586,595.052c-5.3,2.3-8.9-.4-13.6-.9-10.5-1.1-21.2-.9-31.4-3.6,2.6-3,6.7-.3,10,0,10.3,1.2,21.3,2.5,31.7,2.5s2.9,0,3.4,1.9h0l-.1.1h0Z" fill="#74a2a9"/>
      <path d="M918.586,585.052c2.7,4.7-17.2.5-20,1-.2-1.4,4-1.9,4.6-1.9,2.3,0,3.6,1.5,4.9,1.5s7.9-3,10.5-.6h0Z" fill="#6d96ac"/>
      <path d="M1111.586,605.052c-1.7-.2-6.3,0-7-2,2.3,0,5.9-.9,7,2Z" fill="#7fa0b8"/>
      <path d="M1101.586,602.052c-.7,2.7-5,.9-7.1.6-1.2-.2-2.2,1.8-1.9-1.6l9,1h0Z" fill="#7fa0b8"/>
      <path d="M865.586,584.052c-4,1.2-3.9-2.8-1.5-2,.4,0,1.5,1.3,1.5,2Z" fill="#6d96ac"/>
      <path d="M1114.586,603.852c1.6,0,1.6,2.5,0,2.5s-1.6-2.5,0-2.5Z" fill="#7fa0b8"/>
      <path d="M1231.586,676.052c-3.3,0-4.9-.8-7-1,2.2.2,5.6-.9,7,1Z" fill="#5e87a6"/>
      <polyline id="path7_center" points="992.086 589.452 1049.086 593.452 1109.086 595.452 1114.086 596.452" fill="none"/>
    </g>
    <g id="path6_7">
      <path d="M851.686,597.952c-2.6,3.2-13-1.5-18-1-16.1-2.2-35.1,1.7-50-3.5,26.8-.9,53.6,1.3,80.3,3.2,0-4.1.3-8.3.4-12.4-2.8,0-2.5-2.9-.3-2.2,0,0,.2,0,.4.2,0-1.8,0-3.6.2-5.3-9.4-.7-18.7-1.3-28.1-1.9-11.4,0-22.7-.5-34-2-7,1.5-4.4-.8-5.6-1.1-1.4-.3-2.5.9-3.4,1.1-5.2.9-8.8-.4-14,0-5.5-.2-11.8,1-17-1-9.7,1.6-18-.7-27.6-1-7.1,1.1-11.3,1.5-18-.9-5.8,3.2-12.8,1.2-19.5,0-15,2.4-44.2,1.3-57.2-.7-3.9-1.1-4.1,1.7-4.4,1.7-10.4-2.6-20.4-.2-31.4-1.1h-1.2c1.3,1.4.8,3.3.3,4.9.6,0,1.2.4,1.2,1.2s-1,1.4-1.7,1.1c-1.2,4.3-1.7,8.5-2,12.6,7.2.2,14.3.3,21.4.3,3.3,2.6-8.6,2.7-9.5,3h0c-2.3,0-3.6-1.6-5.1-1.7-2.3,0-4.6-.2-6.9-.2v6.6c.8.6,1.8.6,3.1-2.5-.4,4.3,5.9,4.4,8.8,3.7,1.1-.3,2.2-2,2.7-1.7,0,0-.2,1.2.3,1.6,2.9,2.2,3.1-.5,5.2-.6,1.6,0,3,1.1,3.9,1,.9,0,1.2-3,2.1-3,3.2,5.1,10.7,1.6,15,5-.7-8.7,1.7-2,2.1-2,1,.2,4-.7,5.4-1.1.7-.2,2,.4,2.8-.2,1.4-1-.4-3.4,3.2-1.8,2.6-.5,4.8,6.6,5-1,4.8.6,5.9-.5,9,4h1c-.4-3.7,0-2.4,2.3-3.1,5.3-1.6,3.2,1,4.1,1,3.1-1.6,7.6.8,10.5,2.2,5.1-.4,7.3,1,10.3,1s8.1-2.4,8.7-2c.6.5-2.7,3.6.5,3l8.5-3c.5,1.8-2.4.5-2,1.5,1.5,3.5,5.4-.4,7.5-.4,6.5,2.5,8.4,1.2,15.5,2.9v-2c3.4,2.1,8.6-3.1,10,1,2.8-1.5.9-.5,2-2,.8-1.1.9,1.7,1.4,1.8,4.1.2,6.4.6,9.5-1.8.3.2,3.8,9,4,1,4,3.1,8.1,2.2,13,1,2.4.7,8.3,1.4,12,1,5.2-.4,2.5,1,3.5,1.1,3.2-.7,4.8-3.1,8,0,.6.2.3-1.9,1.1-2.1,1.3-.3,2.3,1.1,2.4,1.1,6.7-.9,12.7.6,19.5.6,7.3,4.5,5.1-3.5,9.5,1.4h1.4c1.2-3.2,1.5-1.1,3.6-1,5,0,8.9,1.1,14,1,2.9,0,3.4.6,5.3.8,2.8.3,4-1,7,.3,0-1.9,0-3.8.2-5.7-3.5-.3-6.9-.8-10.2-1.7h-2v-.2h0ZM858.986,581.252l1.6,2.8-54.5-3-1.5-2,54.4,2.2ZM797.886,577.852c3.4-1.8,5.9,2.6.8,2.5-3.1,0-6.2.2-9.2-.3l8.4-2.2ZM607.486,577.052c0-2.3-.3-1.8,1.5-2,4-.5,8.5.2,12.5-1,1.1,4.6-11.2,3.1-14,3ZM746.586,577.052c-1.9,4.3-5.3,1.4-7.1,1.5-5.4,3.3-8-1.9-13.9.5-.8-5.8,16.8-.4,21-2ZM724.586,577.052c1.9,1.7-2.4,3.4-4,.5.3-.9,3.8-.6,4-.5ZM718.586,576.052c3,3.7-10.1,1.4-12,2,.4-2.8,11.5-2.4,12-2ZM686.586,576.052c1.3-1.2,17.5-.6,19,1,0,0,.4,2.1-.5,2-5-3.3-11-.2-17-1-1.4-.2-3-.6-1.5-2ZM683.586,583.652h11v2.4h-11v-2.4ZM682.586,575.052c3,4-15.3,3.3-15,1.5,1.7-2.1,12.6-1.5,15-1.5ZM635.586,575.052h7v2h-7v-2ZM624.586,590.052c1.9,0,4.4-.3,5,2-1.9,0-4.4.3-5-2ZM656.586,592.052c-6.3,0-21,4-25-2h47c1.3,0,2.2.9,3,1,1.1.2,3.3-.3,4,0-.2,4.2-25.7.4-29,1ZM747.586,594.152h0c-1.8,1.7-6.4-1-7.5-1.1-.4,0-.4,1.6-.7,1.7-1.9,1-17.7-1.7-21.3-1.8-3.1,0-5.9,1.3-9,1.2-2.6,0-4.9-1.9-7-1.9s-5.1,2.2-9,2c-1.6,0-7.3-1.4-6.5-4.1,0,1.3,65.8-1.6,61,4h0ZM776.586,578.052c2.3,2-3.2,2.4-5,2,0-1.9,4.3-2.6,5-2ZM764.586,577.052c.4,2.6-.4,1.8-2.2,2.3-1.7.5-8,1.4-8.8.7-3.1-3.5,9.1-1.2,11-3ZM768.086,594.052c-4.9,0-13.7,3.5-17.5-1,10.1-1.2,19.9-.6,30,0-2.6,4.4-9,.9-12.5,1Z" fill="#014177"/>
      <path d="M630.586,564.052c.7.3,2.2,2.5,4.5,3,3.6.7-1-2.6-.5-3,1.8-1.5,4.4,3,4.7,3,15.8-2.3,38.3-3.1,54.3-1,3.4,0,6.7.2,10-1,3.4,1.2,3.1,0,4,0,9.1.7,21.6.5,30,3,1.1,3.4,7.4,2.1,4,.5-1.4-.7-3.1-.2-4-.5-1.4-5.2,9.3,2.3,11,2l-1-3c1,0,6.3-.6,5,1,0,.2-4.1,0-2,2s1.8-1.7,2-2c1.4-2.6,1.6-2.3,4,0,0,0-.3,1.5,0,1.8,1.3,1.1,6.9-1.6,5.9,2.2-12.9,2-24.6-2.7-37.5,0-8.5-1.7-5.8-3-14,0-3.2,0-9.9-1.5-13.5-2.1,0,0-.4-1.4-1.4-1.6-1.7-.2-11,.2-11.6,2.6-10.8,0-36.5.5-44.2-1.7-3.9-1.1-4.1,1.7-4.4,1.7-1.3.2-2.2-1.1-2.4-1.1l2-.5c-3.1-2.4-5.8-.3-6-5.5h1v.2h.1Z" fill="#7b9fb5"/>
      <path d="M603.586,574.852c-1.6,0-1.6,2.5,0,2.5s1.6-2.5,0-2.5Z" fill="#799ab6"/>
      <path d="M602.186,569.152c.2,0,.3.2.4.3v-.3h-.4Z" fill="#014177"/>
      <path d="M789.286,569.052c-1-.2,0-1.9-1.1-2.1-2.4-.5-1.1,1.9-1.9,1.9-3.2-1.8-9.7-.4-13.1-.4s-3.1-3.5-4,.5l-1-2c-1.5-.6-2,1.8-2.5,2l-.5,1c-2.1-1.6-5.4-1.7-8.5-2-1.4,4.8,7.1-.8,6,4,0,0,2.5.9,3,1l.5-2c1.9-.3,1.5.3,1.5,2-.4.5,11.9-3,12-3v3h6l-1.5-2c.4-.4,8.9,2,9.5,2,.9-.2,2-1.4,3.4-1.1,1.2.3-1.4,2.6,5.6,1.1,2.5-.5,1.7-.7,5.5-1,3.6-.3,7-2.5,9.5,2,2.8.2,5.3,1,8,1-.3,0-5.7-1.8-4.5-3,4.9,3,11.8-1.7,14.5,2-1.6-.7-3.3,1-4,1h5c0-4.8,6.6-1.2,8.6-1.1,1.8.4,14.3-.5,19.7.5,0-.8-.2-1.7-.3-2.5-24.2-.4-50.7-4.2-75.4-2.9h0v.1Z" fill="#346892"/>
      <path d="M670.586,599.052c-.4-3.7,0-2.4,2.3-3.1,5.3-1.6,3.2,1,4.1,1,3.1-1.6,7.6.8,10.5,2.2-3.1,0-6.1,2.8-6.1-.8-1.7-1.2-3,2.4-4.4,2.5-.3,0-5.5-1.7-6.5-1.7h.1v-.1h0Z" fill="#5781a5"/>
      <path d="M656.586,596.052c1.8,1.1,4,5.5,4-1,4.8.6,5.9-.5,9,4-1,.4-1.2,3.9-5.3,1-.8-.6-.6-1.9-.7-2-.9-1-1,1.5-1.2,1.6-.3.2-5.6,1.5-5.8,1.3v-5h0v.1h0Z" fill="#5781a5"/>
      <path d="M655.586,596.052c1.2,4.1-3.3,3.9-6,2,5.8,1,1.4-4,6-2Z" fill="#5781a5"/>
      <path d="M747.586,594.052c-1.8,1.9-6.5-.9-7.5-1-.4,0-.4,1.5-.7,1.7-1.9,1-17.7-1.7-21.3-1.8-3.1,0-5.9,1.3-9,1.2-2.6-.2-4.9-1.9-7-1.9s-5.2,2.2-9,2c-1.6,0-7.3-1.4-6.5-4.1l59.5,1.4c1.2,0,2,2.1,1.5,2.6h0v-.1h0Z" fill="#7296b2"/>
      <path d="M864.086,597.052h0c-3.5,0-7,.4-10.5,1,1.8,1.1,4.7,1.6,6.7,1.6h.6c0-.9,3.2-1.7,3.2-2.6Z" fill="#8aaeb8"/>
      <path d="M880.586,597.352c-5.5-.4-11.1-.7-16.6-.5h0c0,1-3,1.8-3.2,2.7,6.3,0,12.9.2,19.5.5,0-.9,0-1.8.2-2.7h.1Z" fill="#8aaeb8"/>
      <polygon points="858.986 581.252 804.586 579.052 805.986 581.052 860.586 584.052 858.986 581.252" fill="#6d96ac"/>
      <path d="M678.586,590.052c-9.5-1-42.1,7.7-47,0h47Z" fill="#7296b2"/>
      <path d="M780.586,593.052c-2.6,4.4-9,.9-12.5,1-4.9,0-13.7,3.5-17.5-1,10.1-1.2,19.9-.6,30,0Z" fill="#81a1bb"/>
      <path d="M746.586,577.052c-2,4.3-5.3,1.4-7.1,1.5-5.5,3.3-8-1.9-13.9.5-.9-5.8,16.8-.4,21-2h0Z" fill="#81a2ba"/>
      <path d="M705.586,577.052s.4,2.1-.5,2c-5-3.3-11-.2-17-1-1.4-.2-3-.6-1.5-2,1.3-1.2,17.5-.6,19,1h0Z" fill="#658cac"/>
      <path d="M682.586,575.052c3.2,3.9-15.4,3.3-15,1.5,1.8-2.2,12.6-1.5,15-1.5h0Z" fill="#84a2bc"/>
      <path d="M789.586,580.052l8.4-2.2c3.4-1.8,6,2.6.8,2.5-3.1,0-6.2.2-9.2-.3h0Z" fill="#7c9db9"/>
      <path d="M718.586,576.052c2.9,3.7-10.1,1.4-12,2,.4-2.8,11.5-2.4,12-2h0Z" fill="#658cac"/>
      <rect x="683.586" y="583.652" width="11" height="2.4" fill="#96b0c6"/>
      <path d="M764.586,577.052c.4,2.6-.4,1.8-2.2,2.3-1.7.5-8,1.3-8.8.7-3.1-3.5,9.1-1.2,11-3h0Z" fill="#95b0c6"/>
      <path d="M851.586,598.052c-2.4,2.7-6.7.3-9,0h9Z" fill="#8aaeb8"/>
      <path d="M629.586,592.052c-1.9,0-4.4.3-5-2,1.9,0,4.4-.3,5,2Z" fill="#7296b2"/>
      <path d="M681.586,591.052c8-.8,2.6,2.3-2,2l2-2Z" fill="#7296b2"/>
      <path d="M724.586,577.052c1.9,1.7-2.4,3.4-4,.5.3-.9,3.8-.6,4-.5Z" fill="#658cac"/>
      <path d="M765.586,569.052l-.5,1-1.5-1h2Z" fill="#014177"/>
      <path d="M747.586,567.052l1,3c-.2.2-4.2-1.7-5-2,1.2-.8,2.6-.8,4-1Z" fill="#014177"/>
      <path d="M737.586,568.052c.9.3,2.7-.2,4,.5,3.4,1.6-3,2.9-4-.5Z" fill="#014177"/>
      <path d="M752.586,568.052c-.2.3,0,4.1-2,2s1.9-1.8,2-2Z" fill="#014177"/>
      <path d="M613.586,569.052l-1-3c2.8,0,4,2,1,3Z" fill="#014177"/>
      <path d="M586.586,576.052l7.3.3c.4-.6.8-1.2,1.2-1.8l-5.5-.5c-1,.7-2,1.4-3,2Z" fill="#799ab6"/>
      <rect x="635.586" y="575.052" width="7" height="2" fill="#8eaac2"/>
      <path d="M603.386,567.052c-1.1.3-1.8,1.1-2.2,2,1.7,0,3.4-.7,4.3-2.1h-2.2.1v.1h0Z" fill="#86a4be"/>
      <path d="M599.386,576.552c.3-.5.6-1,.7-1.5h0l-5-.5c-.4.6-.8,1.2-1.2,1.8l5.4.2h.1Z" fill="#799ab6"/>
      <path d="M621.586,574.052c-4,1.2-8.5.5-12.5,1-1.8.2-1.6-.3-1.5,2,2.8,0,15.1,1.6,14-3Z" fill="#9ab3c8"/>
      <path d="M627.586,566.052h0c-3.5-3.3-4.8-.5-6.5-.4-2.7,0-9.8-1.4-12.8-1.7h-.2c-1.8.8,1,6-3.4,6,6.8.3,12.4,0,19,0l-1-3,4.5,2c2.5-1.5.5-2.8.5-3h0l-.1.1h0ZM613.586,569.052l-1-3c2.8,0,4,2,1,3Z" fill="#86a4be"/>
      <line id="path6_7_center"
      x1="617.086" y1="547.452"
      x2="764.086" y2="552.452"
      fill="none"
      stroke="none"/>
    </g>
    <g id="path5_6">
      <path d="M313.586,570.052c6.5.4,13.4.4,18.5-4,1.2,6.5,4,2.5,6.2,2.3,3.5-.2,8-.9,11-1,6.9-.2.3,4.5,1.3,5.7.3.4,1.8-1.5,2.7-1.8,1.4-.4,3.9,0,4.3-.2.2,0-1.9-2.9.5-4l.5,5c2.5,1,1.7-1.9,2.6-2,2.1-.2,6.6,1,8.9.9,3.2-1.3,6.6-1,9.5-.9-2.2,4.5-5.5,1.7-8.5,1.9-6,0-20.6,6.1-23,0-1.4.6-1.9,2.6-4.9,2-.9-.2,0-3.2-2.6-2,3.2,5.3-3.9,2.8-7.4,3-11.1.8-24.5-1-34.6,0,0-.6.1-1.4,0-2,2.9-.7,3.1-1.9,5-4h1c3.8,1,1.8-1,3-1s3.2,1.8,6,2h0v.1ZM304.586,573.052v-2l-2,1.5,2,.5Z" fill="#739fab"/>
      <path d="M384.686,595.052c-.7-8.1-.8-16.3-.8-24.4-.9-.2-2-.5-4.4-.7-2.2,4.5-5.5,1.7-8.5,1.9-6,0-20.6,6.1-23,0-1.4.6-1.9,2.6-4.9,2-.9-.2,0-3.2-2.6-2,3.2,5.3-3.9,2.8-7.4,3-11.1.8-24.5-1-34.6,0-20.8,2.3-38.3-2.9-58.9,1.7-7.6-1.7-5.4-2.1-13.1-.7-6-.7-14.5,1.6-20-1-3.3-.6-10.1,3-3.2,3.8,5.4,1.9,33.2-2.6,32.2,3.2-8.1-1.5-12.1,2.9-20.6-.6-3.7-.8-26.4,3.1-25.4-2.4-5.7-3.1-14.1-1.9-20-4-3.4-1.1-11.3-1.2-11.4-5.6-4.6-3.8-8.9-7.6-12.5-12-2.7,1.9-5.5,3.8-8.2,5.9,3.9,3.7,6.3,7.2,11,9.5,1.1,2.1-2.5.8-2,2.5,5.7-2.3,3.3,1.2,6,2.5,1.2.6,7.3.4,3,3h0c-2.8,1.7-15.4-8.1-17.5-10.6-.4-.5-2-2.7-3.3-4.8-1.4,1.2-2.8,2.4-4.1,3.7,1.3,1.5,2.2,2.8,1.9,3-.9.9-2.2-1.1-3.2-1.7-.4.5-.9,1-1.3,1.5v.2h-.1c-.7.8-1.3,1.6-1.9,2.5,5.1,4.4,8.2,6.5,16.6,11.4,3.1,1.8,4.9,2.9,8,5,3.6,2.1,9.6,3.2,12,7-3.8.2-6.9-3.4-10.6-1.1,0-3-7.8-1-4.4.6,7.6,2.7,16.5,2.5,24,5.5.8-.5.5-2.2,2.4-2,2.5.2,8.3,2.3,11.6,3,5.2-.6,9.2,1.6,14,2,12.4-1.2,15.9,4.3,27.5-5,.3,0,1.5,4,4,2.7,1.4-.8,1.3-2.9,2-2.7,1.5.6,1.9,8.6,4.5,1l-2,.5c-1.2-1.5,3.5-2.9,4-2.5.2,0-.2,1.5,0,2,2.2,2.2,3.8-.9,5.3-.8,1.3,0,3.1,2.2,3.6,1.8,2.3-8.4,25,.4,32-3,1.1,0,6.7-.2,7,0,0,0-1,2.2,0,3,.4,0,2.3,1.5,3,1,.3-.2-2.7-4.5,1.5-3,1.2.4,0,2.6.5,3,.4.4,2.7-.7,3.5-.6,2.4.4,1,3.2,3.5-.4,0-4.3,4.3-2.9,7-2,0,2.2-3,0-4,2,3.8-.2,8.8,0,12,1,2-2.1-4.7-2.4-.5-3l3.5,3c-.3-5,.4-2.2,2.5-2.1.7,0,0-1.8,1.9-2,.7,0,6.5.7,6.9,1,1.2.9.4,2.8.6,3.1,0,0,1.5-.8,2.3-.7,5.9,1,10.1,0,14.7.6l2-3c-4.2.4-11.2,3.6-13-1,6.4.4,12.7-1.5,19-2,9.9-.5,18.9,1.1,28-2,.4.6-1,3.3,1,3l1-4s.2,0,.2.2h.2v.1h0ZM161.586,583.052c-5.6-.9-5.8-3.2,0-3v3ZM333.586,595.052l-19.5,3.1c-3.8,0-11.7-2.3-14.9-2.1-.6,0-.4,1.8-1.2,2s-3.5-1-3.9-.9c-.2,0-.9,3.7-2.5,1.9-.4-.5,1.6-4.2-3.8-2.7-8.3,2.3-19.6.6-29.7.6-20.6-.3-41.2,2.4-61.5,0-.5-4.1,8.1-1.3,10.5-1.5,41.3-2.6,85-.5,126.5-.5h0v.1h0ZM335.586,596.052c-.5-.4-1-2,1.3-1.7,3.5.4,6.3-.6,9.7-.3-.8,2.8-9.8,2.9-11,2ZM368.586,594.052c-.2-2.5-.2-1.7,1.5-2,4.5-.7,9-.5,13.5-1,3.1,4-13.5,2.4-15,3Z" fill="#014177"/>
      <path d="M388.186,570.752c-2.3.2-3.2,0-4.2,0,0,8.1.1,16.3.8,24.4h.2c.6-8,1.6-16,3.1-24.1v-.3h.1Z" fill="#014177"/>
      <path d="M122.086,564.052c-.7-.4,0,3.3-2.5,2,2-4.8.1-3.2-1-4.7-3.3-4.6.7-2.5,4-3.3l-1,4,2.8-.9c.3,1.2,3.9,5,6.3,7.9,1.3-1.3,2.7-2.6,4.1-3.7-1.2-1.8-2.2-3.5-2.2-3.7,0-.5,1.9-2,2.9-1.4,0,0,0,1.2.8,1.9.4.4.8.7,1.2,1.1,2.7-2.1,5.5-4,8.2-5.9-2.4-2.8-4.4-5.9-6.1-9.4-1.1-5.6-.2-6.1,5-8-.5-.6-2.5-1.4-3-2.5,4.2-.8-.1-2.7,0-4,0-.7,2.2-1.1,2.6-1.9.8-1.9.4-3.5,2.4-4.6,3.9,0,2.5-2.5,2-4-3-.7-3.9,4.8-4,5-.3.3-1.7-1-2.4-1s-.8,3.9-2.6,2c-1.7-1.7,5.6-6.7,5.7-7.2.4-1-1.2-1.5.3-2.8.8-.7,2-.7,3-1,.9-4.8,6.4-5,10-7,1.9-3.5,1.8-6.2,7-6,2.9-4.1,1.7-2.6,5.8-3.2.6-.3.7-2.3,2.2-3.3,6.7-4,14.9-8.2,23.1-12v-7c-11.3,5-22.4,10.2-33.5,15.7-10.7,7.2-4.5.8-1.8-3.7,1.9-1.3,6.5-1.2,6.9-1.7.8-.9-1.5-4,4.1-2.8-1.8-4.6-.9-2.3,2-3,8.7-2.1,10.8-8.9,20-8l-1-3c1.2,0,2.3,0,3.3-.2,0-3.3.2-6.6.3-9.9-24.8,9.4-50.6,19.8-70.7,36.5-1.4.9-8.2,4.9-9.3,4.6-4.4-1.1,1.9-2.8,3.8-4.1,1.3-1,4.5-5.5,4.8-5.7.8-.4,2.6,1.1,2.8.9-.5-3.4,6.4-6.2,9.3-7.2,1.9-1,1.9-4.7,5.6-2.8-2.7-4.9,2.6-2.5,6-4.5,2.4-1.4,4.1-4.4,8.8-6.2,2.8-1,7.7,0,5.2-3.3,5.2.6,8.2-3.1,11.8-4.8,7.5-3.4,14.8-6.6,22-9.5,0-2.1.1-4.2.2-6.3-21.1,7.8-41.6,17-60.9,29.1-3.2,1.8-2.3.2-6.5,3.4-1,.8-3.2,1-3.4,1.2-.1,0,1.1,1.8,1,1.9-5.5.2-13.9,7.7-17.6,11.4-.6.8-.5,2.6-1.3,3.1-1.2.9-3.8.2-4,.5-.7.6,2.9,3.3-1,6-.2,3.4-3.4,2.7-4.5,4-.3.3.4,1.5.2,1.8-.4.6-2.6.9-2.7,1.7,3.1,1.6.2,5.7,0,8,0,.8,3.1,0,2.1,2.5h-4c0,2,3.8,2.6,4,3.6,0,.4-1.1,7.5-1.2,7.9-.3.8-1.4.4-1.6.6-1,1.5,3.8,4.5,3.5,7.4,0,1.1-3.2,2.9-2.7,3.5,1.2,1.1,6.2-6,6-.5,0,.8-1.4.3-1.7.7-.4.5.8,1.7.7,1.8l6,5c2.7-2.2,3.4,2,4.4,3.6,3.6,3.3,3.6,1,2.8,5.6.8,3.9,3.7,3.5,5.7,5.4,2.2,2,3.9,3.6,5.5,5,.6-.9,1.2-1.7,1.9-2.5-2.7-1.1-4.7-7.4-5.9-8h0v-.1h0ZM156.586,498.052l-3,3c-.3-1.8,1.1-3.3,3-3ZM126.686,534.052l3.9-1c-.7,1.4.2,5.7,0,6.3-.4,1.3-8.3,6.8-3.9-.3-4.8.5-2.2-.7-2.6-2.5-4.8-7.1,10.7-11.3,2.6-2.5ZM107.586,529.052c2.1-4.8-3.3-6.8,4-6,.3.2-1.4,6.5-4,6Z" fill="#014177"/>
      <path d="M388.086,593.052c.4-7.6.6-15,.7-22.4h-.6v.3c-1.5,8-2.6,16.1-3.1,24.1.8.4,1.9.6,3,.7,0-.9,0-1.8.1-2.7h-.1Z" fill="#014177"/>
      <path d="M400.086,594.652c-3-7.1-5-14.5-5-22.6s-1.7-.9-2.5-1.4c-.6-.2-1.2-.3-1.9-.2-.7,0-1.3.2-1.9.2,0,7.4-.3,14.8-.7,22.4,0,.9,0,1.8-.1,2.7,1.7.2,3.4,0,3.9.4,1.5.6,1.8,2.6,3.6,3.8,0-.5.9-1.1,1-1.5,0-.2-3.2-.8-2-3.5,1.9.5,3.8,0,5.6-.3h0ZM388.586,593.052c-.6-4,7.6-1.2,10-2-1.6,3-7.2,1.4-10,2Z" fill="#014177"/>
      <path d="M293.586,566.052c2.2,2.5,4.2,3.2,5,7-.9.2-2,0-3,0l1,2c-15.4,1.3-27.3.2-42.6-.7-4.6.3-15.5,4.2-20.4.7l4.7-3.2c-2.1-6.7.7-2,4.8-1.8,8.5.3,17.7,0,26.4,0s8.8,2.4,7-4c5.9,4.8,11,3.8,17,0h.1Z" fill="#549d81"/>
      <path d="M604.086,571.252v2.6c.2-.9.4-1.8,0-2.6Z" fill="#014177"/>
      <path d="M122.586,589.052c3-1.9,5.9,2.6,7.3,3.3,1.8.8,3.8,1.1,5.7,1.7.9.2,1.7,1.4,3,1v-3l-2.5,1,1.5-2c.8-3.5-3.9-1.4-8-3-6.8-2.2-5.2-4.1-5.9-4.5-.5-.3-1.2-.4-1.9-.6-.4,1.2-1.2,2.6-2.1,3.9,1.7,0,1.9,1.1,2.9,2.1h0v.1Z" fill="#3e7a89"/>
      <path d="M109.586,577.052c-.4.3,1.8,2.1,2,3l3,.6c.2,1-.3,2.9,0,3.4.3.4,9.3-2.6,4,3h1.1c1-1.4,1.7-2.7,2.1-3.9-1.2-.2-2.5-.3-3.6-1-1.7-1-6.3-6.6-8.6-4.9h0v-.2h0Z" fill="#3e7a89"/>
      <path d="M128.086,571.852c.4-.5.8-1,1.3-1.5-.6-.3-1,0-1.3,1.5Z" fill="#014177"/>
      <path d="M395.586,600.152c-1.8-1.2-2.1-3.2-3.6-3.8-.9-.4-5.7,0-7.4-1.3l-1,4c-2,.3-.5-2.3-1-3s-1.9,1-2,1c3.2,4.2-9.3,2.8-10,1h-2l-1.5,4c-3.1-4.6-12.9-1.6-18.5-1l-2,3c3.1-.7,3.8,7.6,9,5.5-1-.3-4.3-6.3-4-6.5.5-.4,5.4,1.5,6,2,.4-5.6,1-2,3.5-1.5,3.6.7,7.2-.5,10.5.5,2.9-2.7,3.9-2.2,8-1,.7-.8,1.6-.7,2-1,1.6-3.1,1.7-1.2,4.4-.9,1,0,.3-2.4,1.1-2.1,1.8.7,5.4,4.3,8.5,4,0-1-.2-2,0-2.9Z" fill="#6f9ea6"/>
      <path d="M276.586,601.052c2,7.9-7,.3-7,5-3-.5-.7-3.7-1-4-2.4-2.3-1.9,2.9-2,3-4.3-2.1-13.5,3.8-13-4-3.2-3.3-.8,3.8-1,4-.5.5-12.5-.6-12.9-1.1s0-1.5,0-1.9c2.2,2.2,3.8-1,5.3-.8,1.3,0,3.1,2.2,3.6,1.8,2.1-7.5,21.8-1.4,28-2h0Z" fill="#29796d"/>
      <path d="M394.586,595.052c-1.2,2.7,2,3.3,2,3.5,0,.4-1,1-1,1.5h0c1.9,1.1,4.1.3,6,1,.2-.4-.2-1.8,0-2h.6c-.7-1.4-1.3-2.9-2-4.4-1.8.4-3.7.8-5.5.3h-.1v.1h0Z" fill="#678dac"/>
      <path d="M137.986,570.052c2.1,2.5,14.7,12.3,17.5,10.5,4.3-2.6-1.8-2.4-3-3-2.7-1.3-.3-4.8-6-2.5-.5-1.7,3.1-.4,2-2.5-4.6-2.2-7.1-5.7-11-9.4-.9.7-1.9,1.4-2.8,2.2,1.3,2,2.8,4.3,3.3,4.7Z" fill="#5e929a"/>
      <path d="M135.486,560.152h-.1c-1-.6-2.9.9-2.9,1.4s1,1.9,2.2,3.8c.9-.8,1.8-1.5,2.8-2.2-.4-.4-.8-.7-1.2-1.1-.8-.7-.8-1.9-.8-1.9Z" fill="#5e929a"/>
      <path d="M121.586,562.052l1-4h0c-3.2.8-7.2-1.3-3.9,3.3,1.2,1.5,3,0,1,4.7,2.5,1.3,1.8-2.4,2.5-2,1.2.6,3.2,6.8,5.9,8l.1-.2c.2-1.6.7-1.8,1.3-1.4.4-.5.9-.9,1.3-1.4-2.4-2.8-6-6.7-6.3-7.9l-2.8.9h-.1Z" fill="#5a83a6"/>
      <path d="M132.586,572.052c.3-.3-.6-1.5-1.9-3-.4.5-.9.9-1.3,1.4,1,.6,2.2,2.6,3.2,1.7h0v-.1h0Z" fill="#5a83a6"/>
      <path d="M128.086,572.052v-.2l-.1.2h.1Z" fill="#5a83a6"/>
      <path d="M280.586,600.052c1.1,0,6.7-.2,7,0,.1,0-1,2.2,0,3-2.9,5.6-3-2.9-8.5,2l1.5-5h0Z" fill="#29796d"/>
      <path d="M383.586,591.052c3.1,4-13.5,2.4-15,3-.2-2.5-.2-1.7,1.5-2,4.5-.7,9-.5,13.5-1Z" fill="#799cb6"/>
      <path d="M388.586,593.052c2.8-.6,8.4,1,10-2-2.4.8-10.6-2-10,2Z" fill="#8ca9c1"/>
      <path d="M231.586,570.052c7.2,5.2-2,.9,1,5-1.5,0-3.7,1-6,1,6.1-1.4,1.2-6.5,5-4,.2-.6-.2-1.6,0-2h0Z" fill="#549d81"/>
      <path d="M216.586,576.052c-3.2,0-7.7.9-10-1,3.1,0,7.7-.8,10,1Z" fill="#49878b"/>
      <path d="M161.586,583.052v-3c-5.8-.2-5.6,2.1,0,3Z" fill="#5e929a"/>
      <path d="M328.586,602.052c-.4,2.3-6,3.7-7,3-2.6-2,6-3.7,7-3Z" fill="#014177"/>
      <path d="M426.586,574.052c-1.7-.3-2-.7-3-1l3,1Z" fill="#4c4d39"/>
      <path d="M593.486,569.052c-4.1,2-8.9,7-12.7,7.8-34.5,1.4-69.3.6-103.8-.8-18.6-1.5-40,3.3-57.4-5-2.7,0-4.3-2.5-6-4h0l-3.5-2-.5,1c7.3,9.1,13.7,7.7,21.4,9.1,5.3,1.5,12.3,4.4,19.1,3.9,16.2-1.1,33.1-.8,50.1-.3h3.4c4.9.2,9.7.3,14.6.5v-.4.4c12,.4,24.1.8,35.9.6,6,0,24.9,1.1,28.8-1,.8-.9,4.9-3.9,6.7-5,1.9-1.5,6.2-2.6,4-5h-.1v.2h0Z" fill="#092235"/>
      <path d="M184.586,573.052c2.9.9,11.1,0,11,4,.4.3,5.1-1.8,9-2-3.7.6-6.6,3.2-1.2,3.8,5.5,2,33-2.6,32.2,3.2-8.1-1.5-12.1,2.9-20.6-.7-3.7-.8-26.5,3.1-25.4-2.3l1-.5c0-1.8-2.5-3.1-4-3.8s-2.1,1.7-2-1.7h0Z" fill="#49878b"/>
      <path d="M302.586,603.052c-.2.5.5,2.1-.5,2l-2.5-2h3Z" fill="#014177"/>
      <polyline id="path5_6_center"
          points="132.586 542.152
                  173.086 555.452
                  222.086 555.452
                  271.086 556.452
                  305.086 554.452
                  392.086 550.452"
          fill="none"/>
    </g>
    <g id="path4_5">
      <path d="M608.586,363.052c.4-.7,1-1.2,1.6-1.6v-5c-3.9,2.6-8.4,2-12.5,2.6-3.6.6-7,1.5-10,2-3.8.6-7.6-1.4-10.4-1-12.7,5.5-29.3,6.5-43.6,9-12.1,1.8-23.9,4.6-36,4-3.1.8-8.8,3.8-13.2,4.3-2.7.3-5.8-.9-8.1-.4-.9.2-.9,2.1-2.4,2.8-3.9,2-9.1.4-12.7,1.2-4.4,1-13.4,4-19.2,4.9-2.7.4-10.4-.3-11.8.1-1.4.5-1.3,2.7-2.3,2.9-8.9,2.2-22,1.9-30.6,4-1.4.3-8.5,4.2-11.4,4.7-13.6.9-15.5.5-27.8,6.2-31.2,3.7-61.2,15.6-91.5,23.5-23.1,7.5-46.4,14.5-69.1,22.9,0,2.1-.1,4.2-.2,6.3,14.4-5.9,28.6-11,44.2-15.8v-1c-5.1-1.1.4-.7,3-1,41.4-10.5,80.8-25,122-32-2.2-3.6.1-1.1,2.3-1.3,1.2-.1,7.7-.7,8.1-.9,1.4-.6,1.2-2.2,2.1-2.6,41.1-6.5,82.2-18.4,123.5-23.2h0c12.3-3.1,26.2-4.8,39.4-7.1,3.1-.5,6.9-4.4,10.6-.4-111.4,23.2-226.8,41.9-333.8,83.2-7,2.7-14.2,5.4-21.6,8.2,0,3.3-.2,6.6-.3,9.9,6.7-1.3,11.8-7.3,18.7-7.8,4.7-4.3,6.7-2.8,11.3-4.2,15.2-4.6,38.4-17.2,55.4-19.5,2.7-.4,4.3,2.9,2.3-2.3,2-1,6.1.1,7.4,0,.7-.1.6-1.7,1.4-1.9,17.5-4.5,34.6-8.4,52-13.8,21.2-4,42.5-11.3,65.5-14.6,25.4-5.9,51.4-10.3,77.9-14.2,2-.3,1.8-2.5,2.4-2.5,5.7,2.4,11.2-.7,18.4-2,18.5-1.7,41.6-11,61-8,.3-.3-.3-2.7,0-3s2.2.9,3.3.7c11.1-2.1,22.9-3.1,33.1-4.8.5,0,1.7-.4,3.3-.8v-11h-1.6v.3h-.1,0ZM553.586,372.052h0l5.7-3.6c12.5,0,24.7-3.8,37.1-5.1,2.3-.2,5.6-1.8,7.2.2l-50,8.5Z" fill="#014177"/>
      <path d="M610.186,375.952h-.2c-1.9.3-1.3,2-2,2-1,.1-5.2-1.1-6.4,0-2.1,2,2.6,1.6,2,3-2.2,1.2-7.5-4.3-8-4-.3.2-.2,3.6-3.6,4-4.3.6-7-5.5-5.9,1l-4.5-2,1,4c-2.8-2.9-8.6-1.9-12-.5-3.1,1.3,2.1,1.6,1,2.5-6.5-3.1-15.2-.3-21.4.9-2.1.1-4.4-2.8-3,1.1l-1,1c-4.8-2.1-10.8.2-15.9,0l-.6,3c-9.7-4.1-5.7,1.6-6,2-4.4-4.2-9.5-.2-16,1h0c-14.1,2.9-24,4.1-38.5,6-1.3,0-2.4,1.6-3,1.6-1.2,0-4-4.6-4.5,2.4l-5-1-.5,2c-3.1-4-7.8,0-12,1.1-2.9,0-3-1.6-5.5-1.1-.8,1.2-3.4,3.5-4.6,4-2,.7-.9-2.5-2.8-1.9-1.2.4-2.3,1.9-3.6,2.3-3.1,1-8.8,0-6,4.7-6-2.1-14.6-2-20.2,1.1-1,.5-.8,3.3-2.7,1.8.3-5.1-6.5,1.9-7.8,2-1.8.5-2.9-.7-3.8-.8-.5,0-.3,1.6-.9,1.7-2.7.3-7.3-.3-10,.1-1.2.2,0,2.9-1.1,3.1-2.4.5-5-1.2-7.5-1,2.8,5.8-2.4,1.3-6.5,2-2.3.4-4.9,4.2-8,4.1-1.1,0,.2-2.5-1.5-2.1.2,7.1-.5,2.6-2.6,2.2-6.9-.2-5-.7-10.1,3.7-1.9.6-10.8.8-11.2,1.1,2.3,3.7-.7,1.1-3.1,1.5-1.7.3-3.4,1.9-5.5,2.1-1.1.1-2.8-1-3.4-.7-.2,0,.7,1.6.5,2-1,2-2.7,0-4,0s-.5,2-1.1,2c-3.8.2-6,.4-9.4,1-36,10.1-71,22.6-104.8,37.5v7c7.4-3.5,14.8-6.7,21-9.4.9-.4,2.3,1,2.7.8.3-.2.3-2.2,1.8-2.7,9.1-.3,16.1-5.8,25.4-8.2,2.3-4.1,8.1-3,12-4,13.5-3.6,24.3-8.2,36.6-11.9,6.1-1.3,12.5-2.8,18.6-4.3,1.9-.4,3.4-3.4,6.8-.8-2.8-4.5,2.6-2.4,6.4-3.1,5.6-1,20.9-4.9,28.2-7.1.6-.2.4-1.8,1-1.8,1.8,0,3.9,2.8,6.8,1.1,1.3-.8.4-2.6.7-3.1,9.5,1.8,21.4-5,31-5-2.5-4,1.4-.8,3.4-1.2,4-3.7,8-4.7,13.6-3.8l-2-3,8,2c0-1.7-5.8-.8-2-2.5,1.3-.6,3.1.6,5.1.1,3.8-.9-.8-3.9,5.9-.6.3.1.7-.1,1,0-1.9-2.9-.8-1.7,1.5-2,2.7-.3,8.5.5,8.5-3h1l1.5,3c2.8-5.1,1.6-1.9,4-1,.7.3,1-2.9,2-3,.4,0,2,2.5,2.5,2s-1.7-3,.5-4l2.5,4c.4-.1,1.4,0,2,0,4.5-6.8,3.8-2.2,4.5-2,2.9,1,2.1-3.9,6-1l.5-3c3.9-1.5-.5,4.5,2.5,3,1.9-.9.3-2.9.5-3,.8-.3,1.8.8,2.5.9.6,0,.3-1.8,1.1-1.9,2.8-.6,9.5,1.5,12.9-.9l.8,1.8,5.6-.9c-2.6-5.3,3.4-1.3,4.5-1.3s6-1.4,6.8-1.7c1.1-.4.4-2.3,1.2-2,1.6,1.6,3.2,3.5,4.5,0-.2-.2-3,.8-2-2,4.2-.3,1.8,6.7,5.4,2.9,1.3-1.3-.4-2.5,3.6-.9-.4-5.7,1.5-1.9,3.7-1.3,1.5.4,3.3-1.2,5.3,1.3,0-6.9,1.6-.4,4-1l2-4,1,3,3-4c3.3-.9,1.5,2.5,2,3,1.8,1.8,2.1-2,2.5-2,.4.3,1.6,1.3,2.5,1,5.9,1.4,2.8-4.2,7.6-3.8,1.3.1.8,3.1,2.4,2.8l.5-3c2.9,2.5,2.3-.8,3.1-1,4.9-.8,5.5,2.9,5.9,2.9,2.2.2.3-3.8.5-4l7-1c-.7,2.3,2.1,5.5,4,4,.7-.5-6.1-4.2,2.2-4.8,4.8-.4,8.8,2.3,12.3-2.2v4l6.5-2c-2.4-8,1.8-2.2,4.5-2.4,2.2-.1,5.7-4.8,8,1.4l4-4h0v-9h-.3.1v.1h0ZM431.586,412.052h-1v-2h1v2ZM590.586,389.052h-2v-1h2v1Z" fill="#014177"/>
      <rect x="430.586" y="410.052" width="1" height="2" fill="#8aa7c0"/>
      <path d="M348.586,445.052l2-2c.3,2.3.2,5.2-3,5v-5l1,2Z" fill="#6389ad"/>
      <path d="M483.586,415.052v1c-1.1,1.6-4,3.7-6,2.5.6-4,3.8-2.9,6-3.5Z" fill="#7c9db8"/>
      <path d="M341.586,449.052c-1.1-1.1,3-3.3,2.5-5,4.1,4,2.8,6.9-2.5,5h0Z" fill="#6f93b1"/>
      <path d="M441.586,402.052c.1,2.3,2.9,4.7,5,4-1.7,1.6-4.4,1.2-6,0l1-.5c-3.7-3.9-2.5-.3-3,.5-.8,1.2-3.4,3.5-4.6,4-2,.7-.9-2.5-2.8-1.9-4.7,4.5-12.8,1.3-9.6,6.9-6-2.1-14.6-2-20.2,1.1-1,.5-.8,3.3-2.7,1.8.3-5.1-6.5,1.9-7.8,2-1.8.5-2.9-.7-3.9-.8-.5,0-.3,1.6-.9,1.7-2.7.3-7.3-.3-10,.1-1.2.2,0,2.9-1.1,3.1-2.4.5-5-1.2-7.5-1,2.8,5.8-2.4,1.3-6.5,2-2.3.4-4.9,4.1-8,4.1s.2-2.5-1.5-2.1c.2,7.1-.5,2.6-2.6,2.2-6.9-.2-5.1-.7-10.1,3.7-1.9.6-10.8.8-11.2,1.1,2.4,3.7-.7,1.1-3.1,1.5-3.5,1.3-4.8,2.9-8.9,1.5-.2.1.7,1.6.5,2-1,2-2.7-.1-4,0-.7,0-.5,2-1.1,2-3.8.2-6,.4-9.4,1,.4-3.1-1.1-2-3-1.6-28.5,4.8-54.1,20-81.9,23.6,5.7-3.5,5.4-1.7,10.3-3.2,15.2-4.6,38.4-17.2,55.4-19.5,2.7-.4,4.3,2.9,2.3-2.3,2-1,6.1.1,7.4,0,.7-.1.6-1.7,1.4-1.9,17.5-4.5,34.6-8.4,52-13.8,30.7-7.2,64-14.7,96.2-21.2h0l-.1-.1h0Z" fill="#8aa7c0"/>
      <path d="M607.186,374.952h-.3c-10.2,1.7-22,2.7-33.1,4.8-1.1.2-3-1-3.3-.7s.3,2.7,0,3c-19.3-3-42.6,6.3-61,8l3,1v1c-3.3-.4-4.2-.2-5,3,6.4-1.2,11.6-5.2,16-1,.3-.4-3.7-6.1,6-2l.6-3c5.1.2,11.2-2.1,15.9,0l1-1c-1.4-3.8.9-1,3-1.1,6.2-1.2,14.9-4.1,21.4-.9,1.1-.9-4.1-1.2-1-2.5,3.4-1.4,9.2-2.4,12,.5l-1-4,4.5,2c-1.1-6.5,1.7-.3,5.9-1,3.4-.5,3.3-3.8,3.6-4,.5-.4,5.7,5.2,8,4,.5-1.3-4.1-1-2-3,1-.9,4.1-.3,5.7,0v-3.1h.1,0Z" fill="#7296b3"/>
      <path d="M606.086,389.052c-2.3-6.1-5.8-1.5-8-1.4-2.7.2-6.8-5.7-4.5,2.4l-6.5,2v-4c-3.4,4.5-7.4,1.8-12.3,2.2-8.3.6-1.5,4.2-2.2,4.8-1.9,1.5-4.7-1.7-4-4l-7,1c-.2.1,1.8,4.2-.5,4-.4,0-1-3.8-5.9-2.9-.9.1-.2,3.5-3.1,1l-.5,3c-1.6.3-1.1-2.7-2.4-2.8-4.8-.4-1.8,5.1-7.4,3.8,4,1.5,41.1-1.6,38.9-6,.5-.3,1.6,1.8,3.2,1.8,3.2,0,15-1.7,23.3-3.2v-2.7l-1.1,1.1h0v-.1h0Z" fill="#7698b5"/>
      <path d="M176.586,506.052c.4,6.4-7.8,6.6-10.3,8.1-1.3.8-1.4,2.5-2.5,2.9-.9.3-2.9-.3-3.2,0-.4.4.4,3.6,0,4-.7.7-4.7-1-4.9-.9-1,1.2-5.1,10.2-8.1,6.9,3.3-1,1-2.9,1-4s1.1-.7,1.1-1.4c0-1.2-2.5,0-2.1-1.6,3,0,9.9-.8,9.1-4.8,7.4-.7,3.4.8,5.5-3.3,2.3-1.8,11.1-2.6,11.5-6.8.4-.3,2.1,1.1,2.9.9h0Z" fill="#7194b3"/>
      <path d="M491.586,407.052c-2.6-5.3,3.4-1.4,4.5-1.4s6-1.4,6.8-1.7c1.2-.4.4-2.3,1.2-2,1.6,1.6,3.3,3.5,4.5,0,0-.2-3,.8-2-2,4.2-.3,1.8,6.7,5.4,2.9,1.3-1.3-.4-2.5,3.6-.9-.4-5.7,1.5-1.9,3.7-1.3,1.5.4,3.3-1.1,5.3,1.3,0-5.9,1.5-2,3-1-3.3-1-.4,2.8-2.5,3-1.7.2-3.1-1.8-4-2-1.9,4.2-10.9,2.9-15.1,3.6-4.4.3-9.8,1.6-14.3,2.4l1-.5c-.3-.3-.9-.3-1-.5h-.1v.1Z" fill="#7b9cb8"/>
      <path d="M452.586,414.052c-1.3.5-5.2,3.1-5.5,3.1-2,0-4-3.2-3,1-4.5-2.8-4.7,1-5,1-.8,0-1.9-1-2.9-1-2,3.5-4.6,3.1-7.6,0-1.9-2.9-.8-1.7,1.5-2,2.7-.3,8.5.5,8.5-3h1l1.5,3c2.8-5.1,1.6-1.9,4-1,.7.3,1-2.9,2-3,.4,0,2,2.5,2.5,2s-1.7-3,.5-4l2.5,4h0v-.1Z" fill="#6188aa"/>
      <path d="M641.386,370.252c-.6.6-1.1,1.3-1.8,1.8h1.7v-1.8h.1Z" fill="#5d85a8"/>
      <path d="M644.386,370.052c-1.1.1-2.1.1-2.9,0,0,0,0,.1-.2.2v1.8h3.2v-1.9h0l-.1-.1Z" fill="#5d85a8"/>
      <path d="M174.586,484.052c-2.7,3.7.7,3.5,4,4-5.3,2.7-10.3,4.6-15.2,7.2-2.4,1.3-9,6.6-4.6.5,3.4-6.4,5.1-4.7,9.8-6,.8-.9-1.6-4,4.1-2.8-1.8-4.6-.9-2.3,2-3h-.1v.1h0Z" fill="#81a0bb"/>
      <path d="M427.586,418.052c2.1,5.4-.1,1.9-2.5,2.5-5.2,1.3-9.5,1.8-14.9,2.6-2.9.4-5.1,3.5-7.6-.1,3.9-1.9,5.6-1.2,10-1l-2-3,8,2c0-1.7-5.8-.8-2-2.5,1.3-.6,3.1.6,5.1.1,3.8-.9-.8-3.9,5.9-.6h0Z" fill="#6188aa"/>
      <path d="M126.586,534.052l4-1c-.7,1.4.2,5.7,0,6.3-.4,1.3-8.3,6.8-3.9-.3-4.8.4-2.2-.7-2.6-2.5-4.8-7.1,10.7-11.4,2.6-2.5h-.1Z" fill="#4e7aa0"/>
      <path d="M454.586,414.052c4.5-6.8,3.8-2.2,4.5-2,2.9,1,2.1-3.9,6-1l.5-3c3.9-1.5-.5,4.5,2.5,3,1.9-.9.3-2.9.5-3,.8-.3,1.8.8,2.5.9.6,0,.3-1.8,1.1-1.9,2.8-.6,9.5,1.5,12.9-.9l.8,1.8,5.6-.9c0,.2.7.2,1,.5-11.5,2.8-26.3,5.7-38,6.5h.1Z" fill="#6188aa"/>
      <path d="M132.586,490.052c-.5,2.7.6,2,3,2-5.7,4.2-11.8,10.5-18.4,12-4.4-1,1.9-2.8,3.8-4.1,1.3-1,4.5-5.5,4.8-5.7.8-.4,2.6,1.1,2.8.9.3-.2-.6-2.6,4-5h0v-.1h0Z" fill="#9eb6cb"/>
      <path d="M641.386,370.052v.3s0-.2.2-.3h-.2Z" fill="#7296b3"/>
      <path d="M646.686,357.652c-.5.1-.9.3-1.1.4l1.1-.4Z" fill="#8ba8c1"/>
      <path d="M528.586,401.052l2-4,1,3,3-4c3.3-.9,1.5,2.5,2,3,1.8,1.8,2.1-2,2.5-2s.9.8,1.5,1c1.8,4.6-8.3,4.5-9.5,2-.8-.3-.2,2-1,2.1-1.5.2-1.2-.9-1.5-1.1h0Z" fill="#7698b5"/>
      <path d="M147.586,523.052c-2.6.9-2.8,4.8-3,5-.3.3-1.7-1-2.4-1s-.8,3.9-2.6,2c-1.6-1.7,5.6-6.7,5.7-7.2.4-1-1.2-1.5.3-2.8l2,4h0Z" fill="#7194b3"/>
      <path d="M165.586,505.052c-1.7,1.9,1.6,1.2-4.3,5-1.5,2.1-.3,2.4-2.7,1,1.9-3.5,1.8-6.2,7-6Z" fill="#96b0c7"/>
      <path d="M259.586,463.052c-3,1.5-8.9,5.9-12,4,2.3-4.1,8.1-3,12-4Z" fill="#648bac"/>
      <path d="M156.586,512.052c-2.7.6-1.1,2.7-1.2,2.8-1.3,1-5.2,2.2-6.8,3.2.8-3.8,4.6-5,8-6Z" fill="#7194b3"/>
      <path d="M111.586,523.052c.3.2-1.4,6.5-4,6,2-4.9-3.3-6.8,4-6h0Z" fill="#7396b4"/>
      <path d="M156.586,498.052l-3,3c-.3-1.8,1.1-3.3,3-3Z" fill="#81a0bb"/>
      <path d="M146.586,527.052c.3,2,.3,3.4-2,3,.7-1,.6-2.5,2-3Z" fill="#7194b3"/>
      <path d="M215.586,465.052c-1.5,1-2.1,1.4-4,1,1.2-.5,2.1-1.6,4-1Z" fill="#8aa7c0"/>
      <rect x="588.586" y="388.052" width="2" height="1" fill="#7698b5"/>
      <path d="M476.586,415.052c1.1,7.8-2.1,5-7.4,5.1-4.3.7-14.2,5.3-19,4.3l-20.2,4.7c-2.2.2-1-2.4-1.9-2-3.8,6.5-9.3-.1,0-3,.7-.3.2,1.9,1.1,2.1,1.3.2,3.5-1.5,5.4,0-1.1-4.9,3.7-2.5,7.4-3.1,5.2-.8,6.6-.6,11-.9.6,0,.5-2,1.1-2.1.9,0,3.8,1.7,4.4,1,.3-.3-.3-2.7,0-3,1.7-1.9,2.1,2.1,2.5,2,3-2.5,5.5-2.4,9.3-2.6,1.5-.4,5.8-2.8,6.2-2.4h.1v-.1Z" fill="#7c9db8"/>
      <path d="M201.986,491.252c.2,1.5.3,2.9.5,4.4h0c2.1-.9,5.5,2.2,6-4,.3-3.7-3-2.4-6.6-.3h.1v-.1Z" fill="#648aac"/>
      <path d="M194.586,495.652c-2.1,1.1-3.5,7.4-4.5,2.5-3.9,2.7-10.8,4.2-13.6,8h0c-.1.6.2,1.7,0,2l9.8-2.2,2.3-5.8c2-.4.2,3.2,1.5,3,4.1-.8,8.9-5.3,12.5-7.4-.2-1.5-.3-2.9-.5-4.4-2.9,1.7-6,3.9-7.4,4.3h-.1Z" fill="#648aac"/>
      <path d="M300.586,460.052c2-2.2,1.8-3.8,2-4,3.4.6,2.8,1.8,6.5-.5,1-.2,3.1.9,3.5.5s-.3-2.7,0-3c7,2.6,13.1-4.1,21.5-3.8,4,1.1,1.7,1.4,2.7-1.9,1.5-2.2,6.5-1.9,2.3,2.7-3.9,5.1-12.8-.4-14.7,5.8-.8.6-16.6,3.1-20,4.2-1,.3-3.1,5.4-3.8,0-2.6,2.8-11.9,5.3-15.9,6.6-2.6,1.5-3.2,3.5-5.6.4-.8-.4-.3,1.9-1,2-3.8.8-4.8-3.6-.8-4.8,7.4.7,13.3-5.4,20.7-5.1l.6-3.1c2.2.5,1.8,2.4,2,4h0Z" fill="#6f93b1"/>
      <path d="M227.586,483.052c6.4-2.8,14.5-5.1,19.9-7.5,2.6-1.2,6.4-7.4,7.6-2.4,1.2-.2,7-4.5,7.5-4,3.1,2.9-1.6,6-4.5,6.5-.9.2-3.1-.9-3.5-.5-.3.3.4,2.5,0,2.9-.4.3-9.8,2-8-.9h-1c-1.1,5.8-5,2.8-7.4,3-.5,0-3.5,6-8.6,4-.2,0-.9-1.4-2-1h0v-.1Z" fill="#7598b5"/>
      <path d="M518.586,408.052c.4.5.6,1.6,1,2-2-.7-1.8,1.8-2.7,1.9-6.7,1.5-15,2-20.7,3.4-3.9.9-8.4,3.6-12.6.7v-1c6.2-2.2,21.3-.4,22.2-5.8.9-.7,5.1,1.5,5.3,1.4.4,0,4-2,7.5-2.7h0v.1h0Z" fill="#6d92b1"/>
      <path d="M395.486,435.052c-1.1-.7-6.1,4.7-6.5,4.8-.3.1-5.6.2-5.9.2-.8-.2-.7-3.1-1.6-2,0,.1.3,1.2-.8,1.9-4.3,2.5-3.2-2.1-4.2-.9-1.3,1.5-1,3.6-5,4-2.9-9,12.6-5.7,16.5-6.8,1.9-.7,1.8-2.3,2.9-2.8,2.1-.9,6-.8,8.1-2.4,2,2.7-2.5,10.7-3.5,4h0Z" fill="#7c9db8"/>
      <path d="M227.586,483.052c1.1-.4,1.8.9,2,1,.4,3.5-3.2,1.3-4.8,2.2-3.4,3.4-10.3,6-15.2,5.8,0-3,4.8-6.8,7.4-6,.8.2.7,3.1,1.6,2,0-3.7,6.2-3.9,9-5h0Z" fill="#648aac"/>
      <path d="M415.586,430.052c.1.1,0,2.9,0,3-1.7,2.2-2.1-3.1-3-2,.2,3.8-5.7,1.9-8.1,2.5-1.5.3-2.8,4-3.9,2.5-.3-.4-.3-4.5.6-5.1.6-.4,13.9-1.4,14.4-.9h0Z" fill="#7c9db8"/>
      <path d="M362.586,444.052c-.4.4-4-.4-5.3,0-.3,0-3.3,5.3-5.7,3-3-2.8,8.2-5.9,9.5-5.7,1.2.2,1.9,2.3,1.5,2.7h0Z" fill="#678dad"/>
      <path d="M419.586,429.052c1.2.6,1.2-4.3,3-2,3.5,4.6-10.8,9.3-4,0l1,2h0Z" fill="#7c9db8"/>
      <path d="M273.586,467.052c2.5,4.6-5.4,2.5-7,5-3-4.9,6.7-5.5,7-5h0Z" fill="#4d79a0"/>
      <path d="M367.586,445.052c-3.8-2-1.9-.5-4,1-1.4-8,4.5-9.7,4-1Z" fill="#6e92b0"/>
      <path d="M1101.586,350.052c-.2-.5-.6-.7-1-.9v.9h1Z" fill="#81a1bb"/>
      <path d="M419.586,571.052c-1.9,0-2.7-.9-4-2,2-.2,2.8,1.3,4,2Z" fill="#4c4d39"/>
      <path d="M606.586,391.752c-.5,0-1,0-1.5.1v3.9c.3-.3.6-.6.8-.9.3-.1.5.4.7,1-.2-1.3,0-2.7,0-4h0v-.1Z" fill="#5a83a6"/>
      <path d="M603.586,394.452c-.7.4-13.4,2.3-15.5,2.6-3.1.4-6.5-3.1-5.5,2-1.7.4-.5-1.7-1.5-1.8-7.4-.4-16.2,6.1-23,2.8-1.1,4.3-7.1.9-9,1-1,0-1,2.7-2.1,3-1.4.4-3.8-2.3-4.4-2-.4,4.6-6.2,1.5-9.1,2.4-2.3.6-3.5,2.2-4.5,2.6-.8.3-.3-1.2-.5-1.3-2.9-2.3-2,2.2-3.5,2.3-2.5-2.1-4-2-6.5,0,3.2,6.9,6.3,2.6,9.5.9.7-.2,9.5-1.6,10-1.5,6.3.9,1.5.2,4.1-.5,1.2-.3,4.8,1,5.8.6,2.3-.9,2.2-4.4,2.5-4.6,1-.8,1.8,3.1,2.5,3,1-.1,1.8-1.2,2.5-1.4,1-.2,2.4.5,2.8.2,0,0,.4-3,1.2-1.8-.3,5.3,6.6-.4,6.5-.8,1.1-.4,7.5.4,9.8-.2,1-.3.4-2,1.2-2,2.6,0,2.1,3.2,3,3,1.7-.3,2.7-2.9,3.2-3,1.5-.3,4.2.5,5.1-.3.6-.5-.5-2.2,1.2-1.8l2,3c-.3-3.8,2.4-.9,4.3-1.3,3-.7,7.1-1.6,9.4-3.8v-3.5c-.8.3-.8,1.9-1.5,2.2h0Z" fill="#5a83a6"/>
      <polyline id="path4_5_center"
          points="526.086 354.452
                  462.086 367.452
                  380.086 387.452
                  301.786 411.952
                  207.086 441.452"
          fill="none"/>
    </g>
    <g id="path3_4">
      <path d="M1086.586,338.052c-2.2-2.3,5.8-2.8,14.1-2.6,0-3.3.3-6.6.5-10-152.3-6.4-305.6,9.1-457.2,26.3,0,6.1.3,12.1.6,18.2,6.6-.6,17.9-4.6,25.1-4-.6,7-4.3,2.8-7.4,3-.4,0-.9,4.2-6,.4-3.6,1.6-7.6,2.3-11.6,2.5,0,2.7.2,5.4.3,8.1.3.4.7.8,1.3,1s-.3-2.8,4-2c1.3.2-.5,3.4,1.5,3-.7-5.3,1.8-1.6,2.9-2.2.3-.2-.2-2.6,2.7-1.8.4.1.4,2.1,1,2,1.1-.2,4.9-3,6-4l2.5,3c1.4-6.8,1.3-2.7,3.6-2.2,2.9.1,7.4-2.8,9.9.3.4.1,1.7-3.9,6.5-2-2.6,2,2.2,3.6,3,3,.7-.5-3.2-2.2-1-3.5.5-.3,6.6-1.5,6.5.5l.5-3c2.6-1.1,1.7,2.1,2.5,2,7.6-3.4,20-4,28.4-4.6,1.7,0,2.5,1.9,3,1.5,0,0-.2-1.8.7-2,2.5-.7,4.5.9,5.9.9s.3-1.6,1.1-1.8c2.3-.6,9.9,2.1,12.9-1,1.5,4.6,1.1-.2,3-.9,1-.3,9.9.7,12.4.4,7.6-.5,16.5-4.9,24-2.6,14.2-7,39.8-4,56-4,1-2.8,13.5-3.2,15.3-2.8,1.1.3,2.2,2.1,2.7,1.8-.5-4.1,5.5-1.1,7.5-1.5,4.2-1.1,22,0,21.5-4.5,2.3-.2-.5,2.7,0,3,1,.7,12-2.1,13.5-2,.6,0,.5,2,1,2,4-1,3.9-2.8,8.6-1,.5-4.1,1-1.5,3-1,3.6.8,3.7-.8,6.6-.9,3.4-.1,8.8,1.4,10.9-1.1,1.9,5.2,2.5,0,3.1,0,14,2,28.4-1.3,43.4-.9,3.9.3,7.1-.2,11-1v-2c-.9,0-4.1-1.3-6,0-.6-3.8,4.5-2.2,6.3-2.3,4.8-.4,11.4-1.4,16.1-1.7,7.5-.4,15.2,2,21.5-2v3c2.9-2.4,7.2-.3,5,2-.7.7-15.3-.8-18.8-.2-3.2.5-2.8.9-1.2,3.3.9,0,1.8,0,2,1h4c-.9-3.3,3.6-2.2,6-1,3.7-.2,7.4,0,11,0-.7-4,2.1-7.4,6-5.5l-1,3.5-2-1.5-1,2.5c3.3.4,7.6,1.4,11,.5-.5-3.8-8.4-2.1-4.5-5.2,17.5,0,35-.8,52.4-.5v-5.7c-4,0-13,.7-14,0v-.2h-.1ZM722.586,347.052h0c-1.7,3.5-6.9,1.6-10,2,1-2.3,7.6-1.9,10-2ZM646.686,357.652l-1.1.4c.2-.2.6-.3,1.1-.4l7.1-2.9c2.7.9,11.5-1.6,12.8-.7h0c3.5,3.4-14.8,2.2-19.9,3.5h0v.1h0ZM668.586,356.052c0-.1-.2-2.2-1-3,7.3-.4,14.8-1.1,22-2,5.4-3.8,14.6-1.1,21-2.5,0,2.9-1.7,1.8-3,2-6.2.9-11.9.4-18,1.5-2,.4-9.5,3.1-10.5,3.1s-.6-2.1-1-2.1c-.9,0-9.1,3.4-9.5,3ZM724.586,362.052h0c-1.2,1-8-.2-9.4,0-5.1.9-12.6,6.1-17.1,2.2-.9,0-1.7,2.1-3.1,2.5-.9.2-7.1-.4-9.3-.3-5.4,2.4-2,1.2-6.6-.5-.2,0-.2.8-3.6,1.6-2.9.7-6.6,3.6-4.2-1.6,15.9-3.1,32.6-5.4,48.7-4.9.7,0,.3-3.1,3.1-2.1.9.3,2.1,2.5,1.5,3h0v.1h0ZM788.586,340.052h0c-1.7,3-7.8,2.6-10.3,1.9-.7.1-.6,2-1.3,2.1-10-3.3-14.1,3-18.4-.6,9.8-2.8,19.8-2.2,30-3.5h0v.1ZM768.586,358.052c-.9.9-8.8-1.5-11,0-3.1-2.9,10.3-3.8,11-3v3ZM789.586,357.052c-.9.9-2.8-1.8-4.3-1.8-4.4,0-10.9,5.8-15.7-.7,2.7.5,17.9-2,18.9-1.4.2.1,1.4,3.6,1.1,3.9ZM791.586,341.052c.4-2.1,8.6-2.3,9-2,3.4,2.5-8.4,2.2-9,2ZM876.586,354.052l-10-.5,10-2.5v3ZM882.586,353.052l-2-1.5,2-.5v2ZM933.586,348.052c.8,0,1.9-.2,2.5,0,3.1,1.1-.2,5.2-2.5,0ZM938.586,350.052c-2.6-3.2,4.8-3.9,6-3,2.6,2-5.8,3.3-6,3ZM948.586,350.052c-1,1-4-2-3-3s4,1.9,3,3ZM952.586,349.052c-1,1-4-2-3-3s4,1.9,3,3ZM986.586,348.052c-9-2.9-24.3,5-31-1.5,5.9-.5,12.8.3,18.5,0,2.3,0,12.1-2.1,12.5-1.6h0c.2.3,0,2.2,0,3h0v.1ZM986.586,339.052c-.6-3.4,6.2-2.4,8-3-1.2,2.2-5.8,2.7-8,3ZM1005.086,337.652c-3.4,0-9.7,3-9.5-1.6,6,.4,12.6-.5,18.5,0,1.1,0,3.4.5,3.5,2-4.2,1-8.3-.3-12.5-.4ZM1070.086,337.352c-4,3.4-3.4.6-8.1-.4-2,0-1.3,2.2-2,2.2-1.8,0-2.5-2.3-5.5-2-5.2,2.4-13.2.3-19,0l.5,2-6.5-1.5c1.4-4.7,20.4-.9,25-1.5h0c4.5,0,8.8-.2,13.4-.2s3.5-2.8,4.6,2.6c-.5,1.4-1.7-1.2-2.5-1.2h.1ZM1081.686,337.652c-2.6.4-6.3,1.2-8.2-1.1l10-.5c.4,3.3-.6,1.4-1.8,1.6Z" fill="#014177"/>
      <path d="M646.086,381.052c-.6-.2-1-.6-1.3-1,0,1.7,0,3.4.2,5.1h1.1c.6,0,1.1-.1,1.6-.2.2-2,.4-3.9.5-5.9-2.1.3-1.6,2.3-2.1,2.1h0v-.1Z" fill="#7194b2"/>
      <path d="M789.586,364.052c-7.5-2.3-16.5,2.1-24,2.6-2.5.2-11.4-.8-12.4-.4-2,.7-1.5,5.5-3,.9-3.1,3.1-10.7.4-12.9,1-.8.2-.6,1.9-1.1,1.9-1.5,0-3.5-1.6-5.9-.9-.9.2-.6,1.9-.7,2-.5.4-1.4-1.6-3-1.5-8.4.6-20.8,1.2-28.4,4.6-.8,0,0-3.1-2.5-2l-.5,3c0-2-6-.8-6.5-.5-2.2,1.3,1.7,3,1,3.5-.8.6-5.6-1-3-3-4.8-1.9-6.1,2.1-6.5,2-2.7-3.1-6.9-.1-9.9-.3-2.3-.4-2.2-4.5-3.6,2.2l-2.5-3c-1.1,1-4.9,3.8-6,4-.5,0-.5-1.9-1-2-2.9-.8-2.3,1.6-2.7,1.8-1,.6-3.6-3.1-2.9,2.2-2,.3-.2-2.8-1.5-3-.8-.2-1.4-.2-1.9,0,0,2-.3,3.9-.5,5.9,4.3-.7,7.7-2.7,13.9-1.8,3-3.1,11.9.7,12-4,.3-.2,3,2.6,7.2.9,1.1-.4.6-1.9.7-1.9.6-.4,1.5,1.7,2.5,1.7s1.5-1.3,2.2-1.4c11.4-.3,26.7-1,37.7-3.3,1.7-.4,1.6-6,3.7-.5,2.8,1.2,21.2-3.2,22-2.5-1.5,7.4-2,1.7-5.5,1.9-.5,0-.5,1.7-.7,1.9-2.3.4-3-2.5-2.8,1.2-.7,1.3-1-1.7-1.1-1.8-2.4-1.8-3,1.6-3.5,1.8-3.9.7-6-2.1-5.3,3,2.5,4.3,1.5.3,2.7,0,2.2-.5,4.1,1.4,4.8-2,.7,4.2,4.3,0,7,.4,1,.1,1.8,1.9,2.4,1.6,0,0-.2-1.1.4-1.6,5.2-4.7,3-.5,5.2.6,2.1,1,1.1-2.1,2-2,1,.1,0,2.1,1,2.1s7.6-1.8,8.7-2.1c.8-.2.8-1.8,1.2-1.8,1.6,0,3.6,1.5,5.9.9,7.9-7.8-18.2.3-18.3-1-.3-.3-1.3-3.8.5-4,1.4-.2,2.9,1.7,4,1.6,6.3-4.5,19.1-3,26.5-2.6-2.3-4.9.5-2.2,2-3,.2-.1,0-1.5,3-3h0v-.3h-.1Z" fill="#7194b2"/>
      <path d="M845.586,360.052c1-2.8,13.5-3.2,15.3-2.8,1.1.3,2.2,2.1,2.7,1.8-.5-4.1,5.5-1.1,7.5-1.5,4.3-1.1,22,0,21.5-4.5,2.3-.2-.5,2.7,0,3,1,.7,12-2.1,13.5-2,.6,0,.5,2,1,2,1.1,0,4.2-1.8,5.6-2,.7,3.1,2.5,5,3,1s1-1.5,3-1c-5.5.9,3.5,2.5,4.5,2.4,4.3-.1,8.5-4.1,11.5,1.1.3.6-4.6-.4-3,3.5-29.2,1.4-56.7-1.2-86-1h-.1Z" fill="#8fa8bd"/>
      <path d="M1097.386,343.952h-5.8c0,.7-.2,1.3-.3,2h6.1v-2h0Z" fill="#81a1bb"/>
      <path d="M1047.986,344.352c-3.8,3,4,1.4,4.5,5.2l-4,.5c6,.3,10.1,0,16,0,.4-1.8-.3-2.2-2-2l-9,1.5v-4.5c7.4,5.1,20.4-.4,28.5,1,1.6.2,2.5,2.1,4.1,2.1s.3-1.9,1.1-2c.6-.1,2.2-.1,4.1-.1,0-.7.2-1.3.3-2-14.5,0-29,.3-43.5.4h0l-.1-.1Z" fill="#81a1bb"/>
      <path d="M1100.486,346.052v-2.1h-3.1v2h3.1v.1Z" fill="#81a1bb"/>
      <path d="M724.586,362.052c-1.2,1-8-.2-9.4,0-5.1.9-12.6,6.1-17.1,2.2-.9,0-1.7,2.1-3.1,2.5-.9.2-7.1-.4-9.3-.3-5.3,2.4-2.1,1.2-6.6-.5-.2,0-.2.8-3.6,1.6-2.9.7-6.6,3.6-4.2-1.6,15.9-3.2,32.6-5.4,48.7-4.9.7,0,.3-3.1,3.1-2.1.9.3,2.1,2.5,1.5,3h0v.1h0Z" fill="#5d85a8"/>
      <path d="M993.586,348.052c-.9,0-4.1-1.3-6,0-.6-3.8,4.5-2.2,6.3-2.3,4.8-.4,11.4-1.4,16.1-1.7,7.5-.4,15.2,2,21.5-2v3c2.9-2.4,7.2-.3,5,2-.7.7-15.3-.8-18.8-.2-3.2.5-2.7.9-1.2,3.3-.9,0-1.8,0-2,1l-1,.5c-.5-.3-.9-1.5-1-1.5,2.7.4,2.6-.9,1-2.5-2.7-2.8-5.7,0-9,0s-6.8.2-11.1.5h.2v-.1h0Z" fill="#88a5bf"/>
      <path d="M648.086,369.452v2.1c2.7-.4,5.4-1,7.9-2.2,5.2,3.8,5.7-.4,6-.4,3.2-.1,6.9,4.1,7.4-3-6-.5-14.8,2.1-21.4,3.4h0l.1.1Z" fill="#5d85a8"/>
      <path d="M993.586,348.052c4.3-.3,7-.4,11.1-.5,3.3,0,6.3-2.9,9,0,3,3-.7,2.6-3,2.5l-.5-1-1.5,1h-15v-2h-.1Z" fill="#104b7e"/>
      <path d="M986.586,345.052c.2.3,0,2.2,0,3-9-2.9-24.3,5-31-1.5,5.9-.5,12.8.3,18.5,0,2.4,0,12.1-2.1,12.5-1.6h0v.1Z" fill="#92adc4"/>
      <path d="M1054.586,336.052v1c-5.3,2.4-13.2.3-19,0l.5,2-6.5-1.5c1.4-4.6,20.3-.9,25-1.5h0Z" fill="#5f87a9"/>
      <path d="M788.586,340.052c-1.7,3-7.8,2.6-10.3,2-.7.1-.6,2-1.3,2.1-10-3.3-13.9,3-18.4-.6,9.8-2.8,19.8-2.2,30-3.5h0Z" fill="#6a8faf"/>
      <path d="M788.486,353.152c.2.1,1.4,3.6,1.1,3.9-.9.9-2.8-1.8-4.3-1.8-4.4,0-10.9,5.9-15.7-.7,2.7.5,17.9-2,18.9-1.4Z" fill="#48759c"/>
      <path d="M689.586,351.052v1c-2,.4-9.5,3.1-10.5,3.1s-.6-2.1-1-2.1c-.9,0-9.1,3.4-9.5,3,0-.1-.2-2.2-1-3,7.3-.4,14.8-1.1,22-2h0Z" fill="#8ba8c1"/>
      <path d="M1014.086,336.052c1.1.1,3.4.5,3.5,2-4.2,1-8.3-.3-12.5-.4-3.4,0-9.7,3-9.5-1.6,6,.4,12.6-.5,18.5,0h0Z" fill="#688dae"/>
      <path d="M1054.586,336.052c4.5,0,8.9-.2,13.4-.1,3,0,3.5-2.8,4.6,2.6-.5,1.4-1.7-1.2-2.5-1.2-4,3.4-3.4.6-8.1-.4-2,0-1.3,2.2-2,2.2-1.8,0-2.5-2.3-5.5-2v-1h0l.1-.1Z" fill="#4d799f"/>
      <path d="M666.586,354.052h0c-1.3-1-10.2,1.5-12.8.7l-6.8,2.8h0c5.4-1.2,23.2-.2,19.7-3.5h-.1Z" fill="#8ba8c1"/>
      <path d="M768.586,355.052v3c-.9.9-8.8-1.5-11,0-3.1-2.9,10.3-3.8,11-3Z" fill="#48759c"/>
      <path d="M1083.586,336.052c.4,3.3-.6,1.4-1.8,1.6-2.6.4-6.3,1.2-8.2-1.1l10-.5Z" fill="#4d799f"/>
      <path d="M1039.586,350.052c-.7-4,2.1-7.4,6-5.5l-1,3.5-2-1.5-1,2.5c-.5,0-1.6,1-2,1Z" fill="#8fabc2"/>
      <polygon points="876.586 354.052 866.586 353.552 876.586 351.052 876.586 354.052" fill="#84a3bd"/>
      <path d="M800.586,339.052c3.4,2.5-8.4,2.2-9,2,.4-2.1,8.6-2.3,9-2Z" fill="#7e9eba"/>
      <path d="M722.586,347.052c-1.7,3.5-6.9,1.6-10,2,1-2.3,7.6-1.9,10-2h0Z" fill="#84a2bd"/>
      <path d="M944.586,347.052c2.6,2-5.8,3.3-6,3-2.6-3.2,4.8-3.9,6-3Z" fill="#7b9cb8"/>
      <path d="M244.586,439.052l1,3c-4.5-3.8-2.1-.5-3.7,0-1.1.3-2.5-.2-3.3,0l3-1v-1c-5.1-1.1.4-.7,3-1h0Z" fill="#799ab7"/>
      <path d="M994.586,336.052c-1.2,2.2-5.8,2.7-8,3-.6-3.4,6.2-2.4,8-3Z" fill="#688dae"/>
      <path d="M1028.586,350.052c-1.7.1-4.6,1.2-6,1-.9-3.4,3.6-2.2,6-1Z" fill="#96b0c7"/>
      <path d="M948.586,350.052c-1,1-4-2-3-3s4,2,3,3Z" fill="#6f93b2"/>
      <path d="M952.586,349.052c-1,1-4-2-3-3s4,2,3,3Z" fill="#6f93b2"/>
      <path d="M933.586,348.052c.8,0,1.9-.2,2.5,0,3.1,1.1-.2,5.2-2.5,0Z" fill="#7b9cb8"/>
      <path d="M997.586,350.052c-.7,1.6-4.3,1.6-5,0h5Z" fill="#88a5bf"/>
      <path d="M1016.586,350.052c.9,0,1.8,0,2,1h-4c.2-1,1.1-1,2-1Z" fill="#96b0c7"/>
      <path d="M986.586,351.052c-.3,1.5-3.6,1.6-4,0h4Z" fill="#96b0c7"/>
      <path d="M637.586,392.052c1.7.2,3.5,0,5.2-.4-.2-1-.4-2.1-.6-3.1-2,0-4,0-5.6.5,4.8,1.3,5.6,1,1,3h0Z" fill="#7194b2"/>
      <path d="M644.986,388.452h-2.8c.2,1,.4,2.1.6,3.1.8-.2,1.5-.3,2.3-.5v-2.7h0l-.1.1Z" fill="#7194b2"/>
      <path d="M644.986,388.452v2.7c.6-.1,1.1-.3,1.7-.4.2-.8.3-1.7.4-2.5-.7.1-1.4.2-2.2.3h0l.1-.1Z" fill="#7194b2"/>
      <path d="M667.486,385.652c-1-4.4-2.4,1.3-3,1.4-9.2-4-4.9,2.3-14.4-1-.4,1.2-1.5,1.8-2.9,2.1,0,.8-.3,1.7-.4,2.5,1.2-.3,2.4-.5,3.4-.6,2.3-.2,6.5,1.1,7.7.9.7-.1.5-1.8,1.3-2,2.4-.6,5.2,2.7,7.3-1h0c.4-.7,1.1-1.7,1-2.4h0v.1h0Z" fill="#7194b2"/>
      <path d="M692.586,383.052c-.2.5,0,1.4,0,2-.4.1-.7.6-1,1-3.5.6-6.2,1.4-8.5-1-.3,0-1.2,5.2-3,0-4.5,6.8-2.6,2.1-5.8,2.2s-.9,3.7-5.7,1.8l1-5,2,3c1.7-5.8,4.5-2.9,7.5-2,.5.2.3-1.8,1.1-2,1.4-.3,5.6,1,6.9.9.6,0,.4-1.5.7-1.6,1-.5,1.8.8,2.8.7.2,0-.3-4.3,2.1,0h-.1Z" fill="#7194b2"/>
      <path d="M720.586,379.052c1.6-.2,6.7-3.1,9-1,3.5,3.2-4.3,1.1-4.6,1.1-.5.1-2.9,3.4-4.4,2.9v-3h0Z" fill="#4d7a9f"/>
      <path d="M1069.986,354.152c-1.3-.1-6.7-3-10.8-2.1-.8.2-.6,1.8-1.3,2-2.6.7-7.9-4-7.8,2-2-5.1-10.1-2.5-15.4-2.6-2.4,0-10.5-1.5-11.1-1.4-.5,0-1,1.9-1.5,1.9-1.1,0-3.4-1.8-4.1-1.9-.4,0-.3,2-1,2-6.1-2.8-2.5,3.6-7.9-2l-2,3c-2.9-3.6-4.9-.3-6-.3-3.7-3.1-5.8-2.2-10.5-1.7h0c-6.9.7-15.4-1.2-21.5,2-.9.2.3-2.5-1.5-2v4c8.7-1.4,17.6.5,26-2l-1,6c4.6-.2,10.1,2.4,12-4,2-.3.5,2.5,1,3,4.8-1.3,13.3,2,18.1-.9.7-1.9,2.8-7.1,4.9-2.1,0,.2-4.3.9-2,3,.2.2,6.2,1.6,6.5,1.6,3.8,0,3.6-6.9,6.5-5.1-3.6,2-.4,4.2,2.7,4.3,1.2,0,4.1-2.3,5.8-1.6.8.3-.2,2.7,2.5,1.8l1.5-5,.5,4c5.5-2.1,19,4.1,21-3,1.1-.7,1.2,4.3,5.3,3,.8-.2.6-2.1,1.1-2,1.4,0,2.2,1.6,3.3,1.8,5.5,1.1,5.4-1.8,5.7-1.7.2,0,.3,0,.5.2.2-1.5.4-2.9.6-4.4-7-.2-14.8.2-20.1.3h0v-.1h0Z" fill="#96b0c7"/>
      <path d="M1097.286,360.652v-2.5c-6,.5-4-.6-1.8-4-1.7-.1-3.5-.2-5.4-.3-.2,1.5-.4,2.9-.6,4.4,2.8,1,3.4,3.1,7.8,2.4Z" fill="#96b0c7"/>
      <path d="M1100.886,355.552c-.9,1.1-1.1,3.3-1.3-1.5-3.5-1-1.3,3.4-2,4h-.2v2.5c.7-.1,1.6-.3,2.6-.6.9-.3.6-2.1,1.1-2,0-.8,0-1.7-.2-2.5h0v.1Z" fill="#96b0c7"/>
      <path d="M1025.386,360.952c1.1-1.1-.6-2.9-1.7-1.7-1.1,1.1.6,2.9,1.7,1.7Z" fill="#96b0c7"/>
      <path d="M1113.086,355.052c-1,1.6-5.2,1.1-5.4,1.3,0,0-.4,2.9-1.2,1.7,0-4.3-.9.9-4.6-2.9-.5-.2-.8,0-1.1.4,0,.8,0,1.7.2,2.5h0c4.6,3.1,2.7,3.2,8.1,1,2.8-.2,5.9,2.8,5.4-1,2.9.4-.5,4.9,6,1.5,2.1-4.9-7.1-.2-7.5-4.5h.1Z" fill="#96b0c7"/>
      <path d="M1087.186,346.052c-.8.1-.5,2-1.1,2-5.8-4.3-16.4-.8-23.5-1h0v1c1.7-.2,2.4.2,2,2,9.3,0,17.3.2,26.2-.4.2-1.2.4-2.5.6-3.7-2,0-3.5,0-4.1.1h-.1Z" fill="#104c7f"/>
      <path d="M1097.386,345.952h-6.1c-.2,1.2-.4,2.5-.6,3.7,2.2-.1,4.4-.3,6.7-.6v-3.1Z" fill="#104c7f"/>
      <path d="M1100.486,346.052h-3.1v3.1h0c.8,0,2.1-.2,3,.1v-3.1h0l.1-.1Z" fill="#104c7f"/>
      <path d="M1101.586,350.052h2c-.5-1.4-.8-2.6,0-4h-3.1v3.1c.4.2.8.4,1,.9h.1Z" fill="#104c7f"/>
      <path d="M939.586,361.052c2.5-3.6-2.9-2.3-4.1-3.6-3-3.4-.5-3.9,2.7-1.6,4.3.4,24.9-2.3,26.9-1.3,6,2.9-2.9,1.9-3.5,2.6s1,1.9,1,2c.2,1.3,0,2.1-1,3h-1l-1.5-5c-5.9,2.2,0,2.3-.5,5l-1,2c-1.9-.5-4.2-.3-7-1l2.5-1c-2.8,1.2-3.2-2.4-2.5-3,.4-.4,5.6.9,5-3-4,2.2-8.6.9-13,2l4,4c-6-2.3-1.6-2.6-7-1h0v-.1h0Z" fill="#6a90ac"/>
      <path d="M989.586,361.052c-8.3.3-18.8,1.5-26,1l-1-1v-2c2.4,2,2-2.2,5.5-.8.8.3,0,2.1,1,1.8s1.2-2.1,3-2c.9,0,.2,2.4,1,2,3.5-4.3,12.4.1,17-3l-.5,4h0Z" fill="#6f92b1"/>
      <path d="M1062.586,347.052v1l-9,1.5v-4.5c2.6,2.5,5.7,2,9,2Z" fill="#014177"/>
      <path d="M696.586,382.052v2c-1.1.1-2.9.6-4,1-.2-4,1.2-4.9,4-3Z" fill="#386a94"/>
      <path d="M720.586,379.052v3c-8.4.8-15.9,2.4-24,2v-2c4.6,1.5,1.9,0,3.8-.9,1.5-.7,3.5-.6,4.7-2.1,1.3,6.2,1.2.9,2.1,1,.9,0,1.2,1.2,2.4.4,3.8-2.5,5.5-.6,11-1.4h0Z" fill="#658bac"/>
      <path d="M1010.586,350.052h-2l1.5-1,.5,1Z" fill="#88a5bf"/>
      <path d="M1001.586,350.052c0,1.5-2.9,1.5-3,0h3Z" fill="#88a5bf"/>
      <polygon points="882.586 351.052 882.586 353.052 880.586 351.552 882.586 351.052" fill="#8fa8bd"/>
      <path d="M689.586,351.052c5.4-3.8,14.6-1.1,21-2.5,0,2.9-1.7,1.8-3,2-6.2.9-12,.4-18,1.5v-1h0Z" fill="#84a2bd"/>
      <path d="M989.586,351.052v1c-.5-.3-1.5-.2-2-1h2Z" fill="#96b0c7"/>
      <path d="M1175.586,238.052h-6v-1c1.3.2,4.4-1.6,6,1Z" fill="#839fb8"/>
      <path d="M1100.486,349.152c-.9-.3-2.1-.2-3-.1.5,1.2,1.8,1.1,3,1v-.9Z" fill="#81a1bb"/>
      <path d="M1122.186,346.752c-.9-.4-3.7-1.2-5.2-1.7-.9-.3,0,1.6-1,1.8-1.9.4-9.4-.9-12.5-.8.8-1.4,1.9-1,3-2h-6.1v2.1h3.1c-.8,1.4-.5,2.6,0,4,8.6-.4,4.9-1.4,12.5,2,.7,0,.4-1.8,1-1.9.7-.1,14.3.8,5.2-3.4h0v-.1Z" fill="#81a1bb"/>
      <path d="M1116.586,337.052c-1.9-4.1-2.9-6.3-3-11-4.2-.2-8.3-.4-12.5-.6-.2,3.3-.3,6.6-.5,10,7.6.2,15.5,1,15.9,1.6h.1Z" fill="#014177"/>
      <path d="M644.986,385.152c0-1.7,0-3.4-.2-5.1-1-1.2-1.1-2.1-2.2,3-.8.1-.9-.3-1.1-.9,0,1.2.2,2.4.3,3.6.4-.2.5-.4,3.1-.6h.1Z" fill="#7194b2"/>
      <path d="M1120.586,340.052c-6.5,2.1-13.1-1.4-18.6-1.9h-1.4v5.7c8,.1,16.1.5,24.1,1.2,0-2.7-2.3-3.6-4-5h-.1Z" fill="#014177"/>
      <polyline id="path3_4_center" data-name="path3_4_center" points="1092.086 293.452 1015.086 296.452 924.086 303.452 826.086 308.452 743.086 317.452" fill="none"/>
    </g>
    <g id="path2_3">
      <path d="M803.586,171.052c-5.4-1.1-1.3,2.6-2,3-.5.3-7.1-6.2-11-3-.2.2-1.5-.4-1.9.1-.6.8.5,2.9-.6,2.9s0-4.5-4.9-4.1c-.7,0-.4,2.1-1.1,2.1-1.5,0-2.2-1.6-3-1.7-1.1,0-2.5,1.2-4.4,1.2,0,1.2,0,2.3-.2,3.5,7.9-.3,16.2-.2,17,2.6.5,1.7-.3,5.6-2.4,6.6,3.8.4,8.2,1.1,11.5.8l-3-2c3.7,1.2-.7-6.1,2.1-7.9,3.8-2.3,5.1,1.9,5.4,1.9h.8v-3.1c-.4.3-1.1-.2-2.4-2.9h.1Z" fill="#44729a"/>
      <path d="M886.586,176.052c-17.1,0-34.5-2.2-51.5-4-6.4-.7-14.1,2.7-20.5-1l-2,3-.5-3-1.5,3c-2.7,1-1.8-1.8-2-2-1.7-1.3-1.8,1.4-2.5,1.9v3.1c2.7-.4,6.5-2.7,9.1,1,2.7-5.2,1.8-1.6,4-1.4,1,.1,2.4-.6,3.5-.6,5.8.1,3.3,1.5,4,2,.5.4,1.9-2,3.5-2s5,1.7,5.5,2c1.4-3.6,3-1.1,4-1,6.2,1,12.4.1,18.5,2,1.2-4.2,1.3-.3,4.1,0,2.4.2,5.7.6,7.8.7,2.5.2,5.8-1.6,7.7.3.3-.1,6.1-1.1,6.4-1,.6,0,.5,2,1.1,2.1,1.2.1,5.5-1.1,7.4-1-1.2-2.9-2.3-4.4-6-4h0l-.1-.1Z" fill="#44729a"/>
      <path d="M1006.586,189.052c7.9.4,18,1.5,25,3,.4.6-1.2,2.9-1,4,3.2,1,1.4-3.4,3.4-3.8,1.4-.3,5.3,2.5,6.1,2.5s1.7-2.3,3.5-1.6l-.5,2c11.3.7,22.9,5.9,33.9,5,.4,0,.9,3.6,5.6,1l-1,3,11-1c-1.9,3,.7,1.6,1,2,.5.6-1,2.7-1,3h-1c-.6-2.6-2.3-.8-3.7-1.3-.3,0-.2-1.6-.9-1.7-2-.3-9.8,1.1-10.3.9-.4-2-4.3-5.2-3.1-.4.9,1.4,1.7-.5,3,1.5-3.8,3.7-3.8-2.9-4-3-.9-.7-1.5,2.6-2.6,2.9-10.5.8,0-2.7-11.4-1.9-.5-.6,1.3-5.9-2-3.5l.5,2.5c-3.4-2-10.8-.3-9.5-5-.6,1-4.2,4-5,3s1.7-3-.5-4c-.8,5-.9,2.2-4,2.2-5.3,1.6-1.9.6-5.1-2.1-2.9-1.3-6.9,3.4-6.4-1.1-.9-1.5-.6,2.5-2,2,.2-6.4-3.1-1-3.5-1s-8.5-2-8.9-2.1c-1.5-.5-1.4-2.3-1.8-2.7s-1.7.9-1.8.8c-2.2-.8-3.3-2.9-2-5h0v-.1h0Z" fill="#7295b3"/>
      <path d="M1151.786,231.352c-2.7-1.2.8-2.6-4.2-1.3-3.8,1-2.3.1-5.7-.7-1-.2-3.8,1.5-4.2-.9,0-.7,1.2-2.1.9-2.4-1.8-1.8-2.1,2-2.5,2-4.3-1.8-2.6-3-7.9-1-.6,0-.6-1.8-1.8-2.4-.3-.1-.6-.2-.9-.3-2.1,1.3-4.2,2.7-6.2,4.1,11.1,3,22.3,6.1,27.3,7.5l-8,1c9.9.3,21-.8,31,1v-1c-3.2-.5-14.7-4.3-17.8-5.7h0v.1h0Z" fill="#0c487b"/>
      <path d="M1121.186,225.052c-.4,0-4.3-3.3-6.6-4-3.5-.5-8,1.2-11-1-.4,0-1.7,1.4-2,1v-3c-1.8-.3-4.1.2-6,0,1.2,1.8.5,4.7-2,4,4.5.9,15.1,3.6,25.7,6.5,2-1.5,4.1-2.8,6.2-4.1-2-.5-3,.7-4.3.6h0ZM1103.586,223.052h-2v-1h2v1Z" fill="#0c487b"/>
      <path d="M949.586,182.052c4.7.6,13.2,2.6,18.5,2.9,2,0,5.1-1.6,7.6-.9l-1,2c2.9.4,10.4-1.9,13.6.7,4.3-.6,3.3-2.1,3.4,2.3.4.5,8.9-5.1,7,1,2.6-1.4,5.2-1,8-1-1.3,2.1-.2,4.2,2,5-3.7,2.1-8.8-2.5-12.7-2.8-1.3,0-2,1.4-3.3,1.3-1.8-.2-1.9-2.4-2.4-2.4-3.6-.1-7.7,0-11.5-.1-4.7-.6-6.1-2.5-11-1-2.6-.4-9.3-2.3-10.5-3.1-1.7,0-5.9,2.1-10.5-.9.2-.6.8-1.3,1-2,.8-.2,1.7,0,2-1h-.2,0Z" fill="#2c618d"/>
      <path d="M900.586,177.052c15.5,2.2,29.7,3.2,45,4-4.6,3.2-2,2.9,2,2-.2.7-.8,1.4-1,2-1.2,4.2-1,.7-3,1-5-5.1-5.1-1.1-5.6-.9-2.4.5-3.7-1.4-5-1.6-3.4,1.1-6.9-.6-10.5-.4-3.4,0-4.8,1.1-6.4,1-.5,0-3.5-5.8-7.6-1-3.4-2.9-6.8-.7-9.5-1-1.5-.2-3.6-1.8-6.5-2-.4-.6-.6-1.4-1-2,2.7-2.6,6.7,1.6,9-1h0l.1-.1Z" fill="#235b88"/>
      <path d="M1107.286,215.052c-.9-.3-.8-1.9-1.4-2-1.6-.3-3.5,1.1-4.2.9-.2,0-3.1-3.6-3.2-3.8-.6.1-1.7,1.1-2,1h0c-1.3.2-1-1.2-1-2-1.5,0-1,1.7-1,3,.6.8.9,1.9,1.9,2.4,5.7.5,9.5,2.8,15.6,3.6,2.8.4,2.7-.9,2.5,3,2.3.7,6.2,4,6.6,4,1.3,0,2.3-1.1,4.3-.6,1.6-1,3.2-1.9,4.9-2.8-7.6-3-16.2-6.7-23.1-6.6h0l.1-.1h0Z" fill="#7295b3"/>
      <path d="M1130.386,221.552c-1.7.9-3.3,1.9-4.9,2.8.3,0,.5.2.8.3,1.2.5,1.2,2.4,1.8,2.4,5.3-2,3.6-.8,7.9,1,.4,0,.7-3.8,2.5-2,.3.3-1,1.7-.9,2.4.5,2.4,3.3.7,4.2.9,3.4.8,1.8,1.7,5.7.7-.8-.8-5.3-4.9-5.6-4.9-3.2-.4-7.3-1.9-11.6-3.5h0l.1-.1h0Z" fill="#7295b3"/>
      <path d="M1168.586,227.052c-3.2-.2-8.1.8-11.3,0-.8-.2-.6-1.9-1.4-2-2.9-.7-14.5-.9-11.3-5-5.9,1-2.5,2.4-8.5-1.8-3.4-.8-6.9,1.7-6-5.2,9.3,2,18.1,6.4,27.5,8.5,5.1,1.6,10.1,1.7,14,5.5h-3,0Z" fill="#7295b3"/>
      <path d="M1098.486,208.052c2.6.5,1.5,1.5,3.5,2.1,4.6,1.2,7.7-2.1,8.7,2.8,2.6-1.4,6.1.6,8.6,1,2.4,0,6.2-6.3-1.7-2.8l.5-2c-1-1.7-2.4.3-3.3-.2-.3-.2,0-1.9-.7-1.8-1.3.3-3.9,2.3-6,1.8-1.3-3.5-6.3-2.2-8.9-2.8-1.9-.3-3.6-2.3-4.6-1h0c-.6,4.6,1,2.5,4,3h0l-.1-.1Z" fill="#7295b3"/>
      <path d="M1105.786,241.352c0,.3,0,.5-.2.7,0,0-.2.1-.4.1-1.1,1.4-2.1,2.8-3,4.3.8.4,1.6.7,2.4,1.1,3.5,1,7.2-.6,10.1,2.5.6-1.6,1.6-3,3-4v-1c-.9-.4-13.7-1.6-10-4.5l5.9,1.1,5.1,2.4,4-3c-4.6-1.1-9.2-2.2-13.8-3.2-1,1.1-2,2.3-3,3.5h-.1Z" fill="#024177"/>
      <path d="M1101.586,239.052c1.2-1,4.1.9,4.2,2.3,1-1.2,2-2.4,3-3.5-90.5-20.7-184.3-30.9-277.2-37.8-8.6-.5-17.1-.3-25.6-.6v5.5c7.8.1,19.7,1.8,26.6,2.1,29.4,2.5,57.9,1.1,86,7,12.6-1.6,26.2,3.4,39,4,11.6,0,24.3,3.6,35.4,4.9,7.6.2,15.2,1.8,23.8,3.4,2.8.5,5.8,2.2,8.6,2.5,2.1.2,4.2-1,5.5-.7s2.1,2.4,3.4,2.7c21.9,3.6,47.4,6.1,67.8,15.5.9-1.5,1.9-2.9,3-4.3-1.4,0-5.1-1.8-3.6-3.1h0l.1.1h0Z" fill="#024177"/>
      <path d="M1102.586,227.052c-22.8-4.2-47.5-10.1-70.4-12.1-1.4-.5-1.2-2.6-2.3-2.9-1.6-.4-11.7-.4-12.3-1v-3c1.9-.3,0,2.7,2.5,2,1-.3,0-2.4,1-2,22.6,7.5,48.6,7.8,72.5,14,2.5.7,3.2-2.2,2-4-5.4-.7-3.1-1.3-5.2-2.8-4.2.7-5.5,1.1-9.5-2.1-1.3-.2-3.2,2.6-4.3,1.8-.3-.2,0-2.3-1.5-2.7-19.8-1.2-41.3-9.1-59-9.5-5.9-.4-18.7-1.8-23.8-3-2.1-.5-3.9-4.2-5.3.2-1.6-2.2-3.2-1.9-5.5-2-.5,0,0,1-3,0-3.8-1.4-9.7-.3-12.4-.3-1.2-.2-2.3-1.9-3.6-2.3-1.7-.5-4.1,1.6-5-1.4-4.9,2.6-10.4,0-15-1-5.2,2.7-12.2-1.5-18-1-4-.3-8-1.1-12-1-1.6-.2-3.5.2-5,0-3,1-5.5-1.3-7.7-1.7-21.6-2.2-46.3-2.5-68.3-4.3-8.1-.3-17.5-.2-25.6,0v5.2l37.6.8h0c.7.9-.9,3.1-2.4,2.9-3.9-2.3-23.2-1-35.2-1.3v3.6c4.9,0,10.2.2,11.7.3,26.9,2.9,54.4,2.5,81.4,4.6,6.7,1.1,17.5,1.2,23,3.8,1.6,0,2.9-1.7,4.8-1.7s7.9,2.3,11.3,2.7c3.5.3,6.9-2.4,9.3,1.1,25.3.4,52.3,6.8,76.6,9.9,29.4,5.1,58.7,9.5,87.4,18.1,1.6-1.6,3.4-3.1,5.1-4.5-4.7-.6-8.9-2.6-14.1-3.5h.2v.1h0ZM844.586,193.052c-.5-.4,1.5-2.5,3.5-2,3.6.9-.8,4.2-3.5,2ZM851.586,192.552c.3-.9,3.8-.6,4-.5,1.9,1.7-2.4,3.4-4,.5ZM865.486,195.352l-9.2-1.2.3-2.3,9.2,1.2-.3,2.3ZM867.586,194.552c2.3-2.9,5.4-.6,8.5-.4,3.1.2,5.7-2.7,7.5,1.9l-16-1.5ZM886.286,195.452c-.7-.2-2.4,1.8-1.7-1.4l30,3c-.3,3.1-25.4-.2-28.3-1.6ZM927.086,200.152c-4.7.1-7.2-1.8-11.5-2.1-.7-2.9,12.6,1.3,17-1h0c2.5,2-4.5,3-5.5,3.1ZM933.586,198.552l11,.5c-.9,3.2-11.5,3-11-.5ZM960.686,202.552c-2.9-.3-8.9,2.7-9.1-2.5l25,3c-2,4.6-12.5-.7-15.8-.5h-.1ZM1007.586,209.052c-7.4-2-16.1.8-22.5-2.9-2.1-.6-5.2,1.3-4.4-2,4.6,1.4,27.8-.7,27,5h0l-.1-.1ZM1016.586,210.052h-5v-2h5v2Z" fill="#024177"/>
      <path d="M1116.686,230.552c-1.8,1.4-3.5,2.9-5.1,4.5,2.4.7,4.9,1.5,7.3,2.3,1.5.6,10,.8,4.7,3.8,4.7-.8,5.3-4.3,13-4l-16.2-6.3c-1.3,0-2.5,0-3.7-.2h0v-.1h0Z" fill="#024177"/>
      <path d="M796.586,190.052l9.4.2v-5.2h-.4c-.8,0-2.5,2-4,0-4.4.3-10.3-.7-15-1h0c-3,0-6.1-.1-9.1-.3,0,1.7-.2,3.5-.4,5.3h16.5c.6,2.7-7.5,3-16.8,2.6-.2,1.2-.3,2.5-.4,3.7,4.5.4,8.7.6,11.8-.2,3,.2,5.5,4-.9,3.8-3.6-.2-7.3-.3-11-.4v6.3c2.8.5,5.6,1.1,7.9,1.1,1-4,11.4-.5,14.4.1,4.9,1.4,2.3-.9,3.6-1,1.1,0,2.4-.1,3.9,0v-5.5c-2,0-3.9-.2-5.9-.4-1.3-.1-4.3.9-3.5-1.5.3-.9,4.7-1.2,9.4-1.3v-3.6c-6.4-.2-10.7-.8-9.4-2.6h0l-.1-.1h0Z" fill="#024177"/>
      <path d="M1106.586,225.052c-27.9-8-58.7-8.8-85.5-17-.9-.4,0,1.7-1,2-2.5.7-.6-2.3-2.5-2v3c.5.6,10.7.6,12.3,1,1.1.3,1,2.4,2.3,2.9,22.9,2,47.6,8,70.4,12.1-.6-3,1.5-1.9,4-2h0Z" fill="#7295b3"/>
      <path d="M1105.586,221.052c.9.1,2.1,0,3,0-1.4-1.6-5-2.7-7-3v3c1.2,0,2.6-2.3,4,0Z" fill="#7295b3"/>
      <path d="M1110.586,221.052h3c-3.1-1-2.4,0-3,0Z" fill="#7295b3"/>
      <path d="M1103.586,220.052c.5.5,1.2.9,2,1-.3-.8-1.2-1.1-2-1Z" fill="#024177"/>
      <rect x="1101.586" y="222.052" width="2" height="1" fill="#024177"/>
      <path d="M796.586,190.052c-1.2,1.8,3.1,2.4,9.4,2.6v-2.4l-9.4-.2h0Z" fill="#558c98"/>
      <path d="M843.586,191.052h0l-37.6-.8v2.4c11.9.3,31.2-1,35.2,1.3,1.5.2,3.1-2,2.4-2.9h0Z" fill="#558c98"/>
      <path d="M1007.586,209.052c-7.4-2-16,.8-22.5-2.9-2.1-.6-5.2,1.3-4.4-2.1,4.6,1.4,27.7-.7,27,5h-.1Z" fill="#5f8aa7"/>
      <path d="M914.586,197.052c-.3,3.1-25.3-.1-28.3-1.6-.7-.2-2.4,1.9-1.7-1.4l30,3h0Z" fill="#64a096"/>
      <path d="M976.586,203.052c-2,4.6-12.6-.7-15.8-.5-2.8-.4-8.9,2.7-9.1-2.5l25,3h-.1Z" fill="#5f8aa7"/>
      <path d="M932.586,197.052c2.5,2-4.5,3-5.5,3.1-4.7.1-7.2-1.8-11.5-2.1-.8-2.9,12.7,1.3,17-1h0Z" fill="#64a096"/>
      <path d="M883.586,196.052l-16-1.5c2.3-2.9,5.5-.6,8.5-.4s5.7-2.7,7.5,1.9h0Z" fill="#6ca998"/>
      <path d="M944.586,199.052c-.9,3.2-11.5,3-11-.5l11,.5Z" fill="#64a096"/>
      <path d="M1107.586,240.552c-1.9,1.4.2,2.2,1.4,2.6,1.8.1,9.1,3.3,9.6.9l-5.1-2.4-5.9-1.1Z" fill="#648aaa"/>
      <rect x="859.997" y="189.197" width="2.3" height="9.2" transform="translate(552.272 1020.675) rotate(-82.2)" fill="#75a4a8"/>
      <rect x="1013.611" y="206.699" width="2" height="5" transform="translate(803.641 1223.443) rotate(-89.9)" fill="#7295b3"/>
      <path d="M844.586,193.052c-.5-.4,1.5-2.5,3.5-2,3.6.9-.8,4.2-3.5,2Z" fill="#558c98"/>
      <path d="M1105.586,242.052c.2-.2.3-.5.2-.7-.2.3-.4.6-.7.8.2,0,.4,0,.4-.1h.1Z" fill="#648aaa"/>
      <path d="M1101.586,239.052c-1.5,1.3,2.2,3.1,3.6,3.1.2-.3.4-.6.7-.8,0-1.4-3-3.3-4.2-2.3h-.1Z" fill="#648aaa"/>
      <path d="M801.586,185.052c1.5,2,3.2,0,4,0-1.5-2.8-2.8-2.7-4,0Z" fill="#44729a"/>
      <path d="M855.586,192.052c1.9,1.7-2.4,3.4-4,.5.3-.9,3.8-.6,4-.5Z" fill="#75a4a8"/>
      <path d="M1128.586,215.052c0,.1-1.6-.3-2.7.3-.6.4,0,2-.8,1.7-3.2-1.2-3.5-7,.8-5.8,1.2.3,3.5,3.1,2.7,3.8h0Z" fill="#7295b3"/>
      <path d="M1171.586,227.052c8.9,1.7,20.3,7.5,29,11-7.2-.7-14.6-.1-22,0l4-5-7,1c2.7-3.5-1.4-3.7-3.6-2.8-.9.4.2,2.2-1.4,1.8l2-4.5-4-1.5h3Z" fill="#839fb8"/>
     <polyline id="path2_3_center"
          points="888.086 155.452
                  951.686 165.052
                  1040.086 179.452
                  1113.086 194.452"
          fill="none"
          stroke="none"/>
    </g>
    <g id="path1_2">
      <path d="M530.586,178.052c-.4-1-1.2-1.8-1-3,2.6.2,16.2-2.8,17-2v3c-.2.3-4.1-2.3-4,2-4.3-5.9-2.3-.9-3.5-.9-1.8,0-3.8-2.9-3.5.9h-1c-.3-4.5-.9-.6-1.2-.3-.9.8-2,.1-2.8.3-.8,4.9,6.7-.5,8.4,0,.6,0,.5,2,1.1,2.1,1.7.1,7.3-1.9,9.4-2,4.2-1.5,24.1,3,22-4,.8-.2.8,1,1,1,2,5.3,9.4-2.1,11,3-2.9.7-12.4,3.1-14.5,3.1-3.2,0-10.6-5.3-7.5.9-1.5-1.7-8.6-2.1-10.4-1.7-1.4.3-2.3,2.5-3.1,2.5-4.7-4.7-18,1.5-22,1.3-12-.1-26.6-.1-38,3.9-.8.3-.3-2-1-2.1-3.6-.2-8.1,4.7-11.9,1.1l.5,2c-.8.6-6.2-1.8-7.6-1.9-.5,0-.3,1.7-1.1,1.9-7.6-1.1-18.4.4-26.4,2.5-8.8,2-19.1,2-28,3.5l-1-3c5.3,2.5,9.1-4.2,9,.9,1.9,1.6,1.8-1.6,2.7-1.9,5.4-2.3,22-.4,27.8-5,.4,3.4,3.7,0,7.3-.4,6.1-.8,13.7-.5,20.1-1,9.4-.8,20.6-2.3,30.3-2.8,9.4-1.1-2-3.6-4.2-4.2,2.8-3.4,6.8,1.9,9.5-2.5,1,3.3-4.5,7.3,3,5l-.5,2c4.6,1.2,2.4-2.5,3-3,2.1-1.7,2,1.8,2.1,1.9,1.3,1.1,3.2-1.4,2.9-2.9,2.6-.2,2,.9,6,0h0v-.2h.1Z" fill="#638aab"/>
      <path d="M641.586,170.052v1c-3.3,3.8,6.1,3.6,3,0v-1h1l.6.9,1.4-.9c3-.3,1.6-1.7,2-2,2.3-1.8,1.8,1.9,2,2l-2,1.5c.6.6,1.1,1.3,2,1.5-3.4,2.2-11.4,3.9-15.5,4.1-2-.2-1.3-2.3-1.9-2.1-7.6,4.8-18.7-.9-27,4,1-5.7-1.2-2-4.3-1.3-4,.9-8.1,1.3-12.2,1.3,2-2.3,6.2-3.9,9-5,0,4.6,4,.2,6.6,0,2.4-.2,10.2,1.8,12.4,0,.8-.6.5-2.1-1.5-2s-5.9,2.6-6.5,2c-.2-.2.2-2.2,0-3,3,1.2,6.8-1.8,8.5-2,.4,0,.5,2,1,2.1,1.2.1,7.4-2.9,9.5-1.1,1,.8-2.6,4.6.5,4,4.9-10.5,1.2-2.7,11.5-4h-.1Z" fill="#648bac"/>
      <path d="M361.586,201.052c.2-.2-.3-1.5.1-1.8.2-.8,10.9,2,9.9-2.1.6-.4,1.6,1.7,2.5,1.7,6.9-3.6,14.9-2.2,22.4-4.1,3.4-.5,8.3,2.2,7.1-2.6,2.8-1,1.8,1.9,2,2,.7.4,1.7-1.8,2.5-1.8s1.7,2.1,2.4,1.7c.1,0,.5-1.8,1.1-1.9l1,3c-3.5.6-12.4,3.3-15.1,4.5-2.8.3-5.7-.3-1.9,3.5l-1.5,3-2-3c-1,0-.2,1.8-.5,2-1.8,1.4-6.4-1-8-2,2.8-.1,9.4-.8,8.5-5-2.1-.2-7.9,2.7-9,2.6-2-.2-3.5-4.7-4.5,2.4,1.7-1.2,3.5,0,4,0l-1,4c.6-3.4-1.9-.5-3-1.4s-.5-3.4-1.5-3.7c-2.8-.8-7,3.1-6.4-.9h-1l-2.5,3v-2c-.4-.2-1.1.2-1.5,0-4.8-1.9-4.5,1-1,1-.2,1.3-.3,5.3-1,6-.5.5-2.7.2-2-1.5.3-.7,2.3-1.8,2-2.5-2.6-.5-2-1.6-2-4.1h-.1Z" fill="#88a5bf"/>
      <path d="M334.586,205.052c1.6,3.1,4,.9,5,1,.5,0,2.5,1.8,4,1-3.4.8-9.8,2.1-9,6l-3-3-1,5c0,.1.2,3.1-1,2,.5-3.3-8.1-4.9-6,0-1.8.4-.6-1.7-1-2-2.1-1.8-1.9,4.2-6.4,3-1.1-.3,0-2.6-1.6-2,.3,2.6-3,2.5-5,3l.5-5c4,4.4,1.8-.1,2.5-1,.2-.2,4.5,1.4,6,0l-4-3c.6-.3,2.7-2.4,3-2,.5.6-1,3.3,1,3,0-3.8,4.7-2.6,7.5-3.2,1.3-.3,5.9-2.1,8.5-2.8h0Z" fill="#89a7c0"/>
      <path d="M290.586,205.052c6.6-5.3,4-1.3,5.6-1,3.6.6,6.5-1.5,9.7-2.2,3-.6,22.8-4.6,23.7-3.8-.3,6.5-4,3.1-7.5,3.6-5.2,2.6-14.7,3-19.8,3.5-1.2.3-1,2.5-2.1,2.7-.8.1-2.4-1.1-3.9-.6-4.5,2.3-1.8,13.8-9.7,9.9l1-7s.1-1.2.9-1l1,2c-.2-2.8,2.7-2.8,5-3l-4-3h0l.1-.1h0Z" fill="#8dafba"/>
      <path d="M290.586,206.052c-1.6,1.4-4.8,1.9-7,2-1.1-2.8,4.6-2.7,7-2Z" fill="#8dafba"/>
      <path d="M248.586,229.052c.3,0,1.6,1.9,2.5,0,.2-.3-.7-1.9-.5-2,.6-.3,2.2.9,3.4.7,2.2-.3,3.1-2.6,6.1-.7,2,1.2-3.1,2.4-4.5,1l1,3-4-1c.8,5-2.1,2.1-6,1,.4-.9,1-1.8,2-2Z" fill="#24697d"/>
      <path d="M470.786,179.752c1.5.9,4.4-2.4,9.3-.7,5.6,1.8-3.9,2.5-6,2.7-4.4.4-4.8,1.3-5.1,1.4-1.5.1-4.7-1.9-6-2-.4,0-.3,1.6-1.1,1.9-6.4,1.6-14.3.1-19.8,2.6-1.6-.2-2.8-3.9-4,.4-1-2.8-5-.6-5.5-1-3-4,11.1-2.2,12.4-2.3,7-.7,18.9-2.8,25.1-4.7.6-.2.4,1.6.7,1.7h0Z" fill="#638aab"/>
      <path d="M431.586,182.052l-1,5c-2.2-.3-3.1-1.9-5.6-1.7-5.5.4-1.9,2.3-2.4,2.7-2,1.6-2.1-2-2.4-1.9-2,.1-6,2.4-8.3,2.7l-12.2.8c-.5-3.4,7.5-2.7,9.3-3.5,1.3-.6.7-4.3,2.2,0,4-2.6,13-3.1,17-2.1.4,0,.8-3.1,3.5-1.9h-.1v-.1Z" fill="#799ab7"/>
      <path d="M503.586,175.052l-1.7,4c-4.3-1.6-8.6,2-11.8,2-5.1,0-4-3.6,0-5.1l-1,3c4-.1,8.1-3.9,11.9-2,.9,0,0-3.2,2.6-2h0v.1Z" fill="#638aab"/>
      <path d="M524.586,178.052l-9-1.5c1.8-3,4.4-.2,6.4-.5.6,0,.5-1.7,1.4-2,.5-.2,5.1-1.3,5.2-1.1,2.6,3.7-3.9,1.9-3,5h-1v.1h0Z" fill="#7194b3"/>
      <path d="M592.586,171.052c.6,3.5-4.7,2.4-7,4-.2-.3-1.7-.8-2-1.5-.8-2.4,2.2-1.1,4.3-1.7,2.8-.8,3.3-.5,4.7-.8h0Z" fill="#5f87a9"/>
      <path d="M314.586,210.052l4,3c-1.5,1.4-5.8-.2-6,0-.7.9,1.5,5.5-2.5,1l-.5,5c-.6.1-1.4-.1-2,0,.1-1-.1-1.5-1-2-5.1-3.4-1.7,3.7-6,3-7.6-5.5-4.8,5.4-16,2l.5,4-3.1-4.1-5.9,4.1c-1.7-6.3-2.2,6.2-5.5-5,3.3,0,5-.6,8-1,1.5-.2,1.7,1.4,5-1,.5-.3,2.4-1.6,2-2,3.3,0,4.8,2.6,7-2,3.4,1.9,11.9-5,12.1-.1,1.8,1.2,3.4-2.7,4.9-3.3,1.1-.4,2.3.1,5-1.6h0Z" fill="#507d9f"/>
      <path d="M350.586,194.052c2.1,2.1-2.7,4.2-4.4,4.1-.6,0-.5-2.2-1-2.1-1.6.3-2.4,2.5-3.3,3-2.6,1.1-5.6-1.3-5.2,2l-3-3-3,3v-5c4.4.7,5.8-2.3,10,2-2.6-4.1,9.6-4.4,10-4h-.1Z" fill="#8aa7c0"/>
      <path d="M361.586,201.052c.2.8-.3,2.5,0,3l-13.4,2.1c-1.5,1.6-4.2.8-4.6.9-1.5.8-3.5-1-4-1l1-1c3.6-.5,19.7-2.8,21-4Z" fill="#346792"/>
      <path d="M392.586,191.052c-1,1-8.3,0-9.5.1-3.5.4-8.5,5.8-7.5-2.1,2.6-1.2,1.8,2.3,2.5,2,1.8-2.8,6.6-1,8.8-1.2,2.7-.6,5.5-6.1,5.7,1.2Z" fill="#6c91b0"/>
      <path d="M374.486,191.152c2.6,3.6-1.5,2.4-3,2.6s-4.6,2.6-6-.2,5-1.4,5.4-1.5c1.9-2.2-.2-2.6,3.6-.8h0v-.1Z" fill="#7094b2"/>
      <path d="M363.586,192.052c1.6,1.7-3.5,8.3-5,1.5.2-1.2,4.8-1.7,5-1.5Z" fill="#7496b5"/>
      <path d="M357.586,193.052c.1.1.1,3,1,4l-7-1c0-1.8,5.7-3.3,6-3Z" fill="#5c85a7"/>
      <path d="M398.586,190.052c-.2.2-4.9,1.2-5,1,0-.1-.1-2.9,0-3,.2-.2,4.9-1.2,5-1,0,.1.1,2.9,0,3Z" fill="#799ab7"/>
      <path d="M365.586,202.052c-.5.1-.9.5-1,1-3.5,0-3.8-2.9,1-1Z" fill="#346792"/>
      <path d="M283.586,219.052c-3.3,2.4-3.5.8-5,1,.9-2.4,3-2.4,5-1Z" fill="#8dafba"/>
      <path d="M307.586,219.052s-.2,1.2-1,1v-3c.9.5,1.1,1,1,2Z" fill="#89a7c0"/>
      <path d="M576.586,185.052c.2-.2,5.2-2,5.5-2,1,0,1.3,2.8,1.5,3,1.8,1.6,2-1.9,2.4-1.9,3,0,6.3-.9,7.1-.8,1,.1,1.9,2,2.5,1.6-.2-4.9,5.2.3,7.5,0,4.2-2,8-1.6,13-1,3.1-.4,4.9-4.3,6.1,0,2.9.8,2.4-2,3.1-2.1,1.3.3,7.4.9,7.4,3-7.5,1.8-11.2,1.2-18.5,0-1.8-.3-1.2,1.7-2.1,2-1.4.4-5.9-1.3-7.7-1-.8.1-.6,2-1.3,2.1-3.2.1-10.9.6-14.7,0-1.2.3-1.3,2.9-2.2,2.9s-3.2-3.6-8.5-3l-1-3v.2h-.1Z" fill="#81a1bb"/>
      <path d="M512.586,190.052c4-4.5,3.9-1.9,9.5-2,2.4-.3,6.6-2.1,8-2.1s.5,1.6,1,1.8c.4.2,8.5-.2,9-.3,2-.3,5.2-3.7,7.5-2.1.9.7,1.5,6,4,4.6.7-.4-5.1-3.9,1-3l-2-3c2.6-.9,1.8,1.5,2.1,1.7,5.3-2,2,2.9,5.9,2.2v1c-3.8-.5-2.8,1.8-3.6,1.9-3.9.7-12.6-1.2-15.9,2-3.4-4,1.2-3.4-6.2-1.4-2,.2-4.8-.7-5.7-.6-.7.1-.5,1.7-1.1,1.8-.4.1-8.5.2-8.9.2s-2.2-2.4-4.6-3h0v.3h0Z" fill="#94aec5"/>
      <path d="M487.586,196.052c3.9-1.1,0-4.8,1-6,1.5-2,5.3,1.6,6,1l-1-3c2.6-1,1.6,1.9,2.6,2.1,3.3.5,5.6-1.2,7.9-2.1.8-.3.2,2.1,1,2.1,2.8,0,3-1.2,7.5,0,0,1,2.6,2.5,2,3-1,.7-4.6-1.1-4.9-.9-1.5,3.9-1.4,3.4-4.6,1.2-5.1,2.6-12,2.2-17.5,2.6h0Z" fill="#8da9c2"/>
      <path d="M670.586,183.052c-3.3-1.3-3.3,2.6-4.5,2.9-1.4.3-5-1.7-7-1.4-.9.1-1.6,1.5-3,1.6-.7,0-.5-2.1-1-2-3.3,2.5-8.2,1.5-11.5,1-.6-5.6,4.5-2.2,8.4-2.1,6.5.1,12.9-2.9,18.6.1h0v-.1Z" fill="#799ab7"/>
      <path d="M558.586,188.052c3-5.5,6.2-2.1,8.3-2.2,1.9,0,4.7-2.8,6.8-1.4.8.5.9,5.6,2.9,3.6.5-.4-1.8-1.7,0-3l1,3c-5.2.7-10.5,3.7-15.5,0-1.1,0,1.6,1.7-3.5,1v-1h0Z" fill="#99b2c8"/>
      <path d="M478.586,196.052c.9-.3,2.3.7,2-1-3.8,1.7-7.1-4.1-3.5-4.1s6.9,1.6,10.5,0l-1,5c-3.2-.1-3.8-2.4-4-2-1,2.1,1.8,3.3-4.7,3.7-.8,0-1.2-.7-1.3-.7.8,0,1.5-.9,2-1h0v.1Z" fill="#8da9c2"/>
      <path d="M591.586,178.052c-.4.3-.7.7-1,1-2.2,0-5-.1-7-1,2.5-1,6.6-3.8,8,0Z" fill="#638aab"/>
      <path d="M609.586,170.052c.5,3.4-7.6,3.2-10,4,0-3.1.4-1.5,2-2,1.8-.6,6.5-2.1,8-2Z" fill="#537ea3"/>
      <path d="M484.586,181.052c-3.4,3.8-1.1-7.3,0-5,.2.3.2,4.8,0,5Z" fill="#638aab"/>
      <path d="M578.586,172.052v1c-.4,0-1.9.8-3,1l-1-.5,1-1.5c.9-.2,2.1.2,3,0Z" fill="#638aab"/>
      <path d="M418.586,198.052l-1,3c-1.1.7-1.7,2.2-3.5,2-.8,0-.1-2.4-1-2-1.4.5-1.1,2.5-1.5,3-2.2,3.3-3.1,1.3-7,2-4.2-5.5-3.2-1.8-4.5-1.2-3.1,1.2-3.8-1.4-5.5-2.8,7.2-3.4,16.9-2.6,24-4h0Z" fill="#92adc4"/>
      <path d="M418.586,198.052c6.1-1.2,4.5-1.3,11.6-1.1.6,0,.1-2,.9-1.9,1.5,0,2.2,1.6,3,1.7,3.2-2.3,9.6-1,12.9-.6,2.1-4.1,4-2.4,7.1-1,.4,0,.4-1.9,1.1-2.1,2.1-.4,9.6.2,12.6-.1,2-.2,3.2-2.9,6.1-.7,2.2,1.6.4,4.9,4.6,3.9-1,.9-2.6,1.2-4,1,3-2.6-6-2.6-3,0,.1.1,2.9.1,3,0-16,.3-30.1,5.5-46,6,2.6-.5,6-2.1,9-2l-2.5-3c-2.1,5.4-4,1.9-7.4,1.5s-4.8,1.9-1.1,3.5c-.9,0-3.8-.2-4,0,3-4.1-2.8.1-2-4-1.2-1.1-.5,2.7-3,2l1-3h0l.1-.1h0Z" fill="#9ab3c8"/>
      <path d="M776.186,198.552c-22.9-.7-47.2,0-69.1-1.5-1.3-.1-4.2,1-3.5-1.5l53-.5h0c4.7-1.5,12.6-.3,19.8.3,0-1.2.2-2.5.4-3.7-10.3-.4-22-1.7-24.6-1.5-1,0-5.3,1.1-5.5.9-2.5-4.1,10.6-3,12.6-2h17.9c0-1.8.3-3.5.4-5.3-14.1-.6-28.7-2.2-42.2,0-1.2-.2-4.1-3.1-4.6-2.7-1.1,4.3-1.2,2.7-4.9,1.4-1.8-.1-3,2.9-6.6-.4l1.5,2c-6.5-1.2-11.6-.2-18-1-1.2,1.6-7.6,2-9.4,1.8-1.7-.5-1-2.3-2.6-1.8-7,1.6-7.9,0-12.5.5-2.3.6-4.1,3.3-7.5-.5-3.3-1.3-3.3,2.6-4.5,2.9-1.4.3-5-1.7-7-1.4-.9.1-1.6,1.5-3,1.6-.7,0-.5-2.1-1-2-3.6,2.8-8.8,1.1-12.5,1-4.7.2-4.8,3.5-10,0-7.5,1.8-11.2,1.2-18.5,0-1.8-.3-1.2,1.7-2.1,2-1.4.4-5.9-1.3-7.7-1-.8.1-.6,2-1.3,2.1-3.2.1-10.9.6-14.7,0-1.2.3-1.3,2.9-2.2,3-8.2-7.7-15.4,2.7-24-3-1.1,0,1.6,1.7-3.5,1-3.8-.5-2.8,1.8-3.6,2-3.9.7-12.6-1.2-15.9,2-3.4-4,1.3-3.4-6.2-1.4-2,.2-4.8-.7-5.7-.6-.7.1-.5,1.7-1.1,1.8-.4.1-8.5.2-8.9.2s-2.2-2.4-4.6-3c0,1,2.6,2.5,2,3-1,.7-4.6-1.1-4.9-.9-1.5,3.9-1.5,3.4-4.6,1.3-5.1,2.6-12,2.2-17.5,2.6h-1c-3.2-.1-3.8-2.4-4-2-1,2.1,1.8,3.3-4.7,3.7-.8,0-1.2-.7-1.3-.7h-2c-17.8.4-34.4,6.8-52,6-.2.2.3,1.7,0,2-.5.4-1.5-1.5-2.5-1.6-1.9-.2-5.7,3.3-8.5.6-2.2,3.3-3.1,1.3-7,2-6.3,1.3-10.9,1.2-17,3-38.7,6-77.8,13.7-115,24-18.3,3.9-35.5,13.2-54,19-2.5.9-10.1,2.1-9,5.5.6,2,8.6,1.6,10,.5.7-5.5,6.3-2.2,10-3,18.4-3.9,40.8-12.4,60.2-15.3,8.5-2,18.9-7.2,27.8-6.8,39.1-4.6,80-16.4,119-17.5-3.4,5.7-13.3,2.9-18,3.5-20.1,2.5-41.8,6.4-62,10-8.7,1.8-17.9,3.1-26,6h-2c-23,2.9-44.3,12.4-67,15,3.8,5.8-5.3,1-7,3s1.7,3.8,3.6,3.9c.5,0,.3-1.9,1.1-2,.6,0,1.2,1.1,1.4,1.1,2.1-.3,11.1-4,13.7-4.8,11.8-3,25.6-4.2,37.3-8.2,3.9-1.2.4-2.4,6-1,7.1,1.7,2.5-.4,4.1-1.9,39-5.9,81.1-15.4,120.4-19.2,3.9-.5,7.2-3.6,11.5,0-1-5.6,3.9-2.1,6.7-2.3,20-1.3,38.1-5.3,57.7-5.5,8.2,0,4-1.1,8.3-2,21.4-.5,45.3-3.2,66.6-2.2.7,0,.5-1.9,1.3-2.1,5-1.1,20.4-.1,26.7-.4,16.1-.3,34.9-3.8,51.1-.6.6,0,.5-1.9,1.2-2.1,2-.4,6.1,1.5,8.8,1.5s7.7-2.2,10.2-2.2,9.1,3.1,11.8,2.6c.6-.1.4-1.8,1-1.9,1.9-.1,10.6,2.2,13.4,2,8.9-1.5,19.9-.3,29-2,5.2-.2,9.6,1.7,15,1,4-1.8,8.9-1.1,13.7-.2v-6.3l-.2.2h0ZM725.586,189.552c1.8-3.7,5.3-.7,7.9-1,1.4-.2,2.8-1.6,3.6-1.5,1.2.2,2.1,3.4,1.5,4h0c-.8.8-5.2-.9-6.6-.9s-7.8,2.2-6.4-.6ZM444.586,216.052c1.2-2.6,5.7-4.5,7-1l-7,1ZM456.586,214.052c6.1-1.2,20.9-3.7,27-3-2.8,4.2-21.6,3.1-27,3ZM484.586,211.552c1.5-2.2,3.1-1.9,4,.5l-4-.5ZM505.086,209.952c-3.7.1-7.8,1-11.5,1.1,1.8-3.8,15.5-3.6,17-2h0c2.9,3-4.7.9-5.5.9ZM511.586,205.052h-4v-2h4v2ZM516.586,204.052c.2-4.9,6.8-2.5,10-3-1.9,2.4-7,3.2-10,3ZM545.586,200.052c-1.5,2.4-6.5,1.8-9,2,1.5-3.3,6.2-1.7,9-2ZM544.586,207.052c-2.5-2.2,5.2-3.4,6,0-1.3-.2-5.6.3-6,0ZM584.586,200.052c1.4-3.5,4.8-3.2,8-3,.6,3.4-6.2,2.4-8,3ZM701.586,191.052l-4-1.5c1.5-2.5,2.8-.7,4,1.5ZM632.586,197.052c-1.6,1.7-11.6.8-14.5,1-2.1,1.6-16.9,1-19.5,1h0c-.9-5.2,10.4-1.1,13.5-2,8.1-2.8,4.3-2.2,12,0,.5,0,12.5-4.2,8.5,0ZM621.586,192.052c.9-2.7,10.2-2,12-2,3,3.7-10.1,1.4-12,2ZM656.086,198.152c-2.1,0-4.1-1.1-6-1.1-3,0-13.3,2.1-14.5-.5,1.9-2.8,23.1-1.9,25.5-1.5h0c4.7,1.2-2.6,3.1-5,3.1ZM663.586,197.052c0-3.6,8.4-2.5,9-2,3.6,3.1-8,2.5-9,2ZM674.086,188.052c3.6-.3,6.9,2.3,10.5,0h0c2,5.3-19.1,2.1-10.5,0ZM702.486,195.052c-2.9,4.4-7.1,1.8-10.5,1.9-2.1,0-4,1.1-5.9,1-1.5,0-11.7-1.4-11.6-2.4,7.4-3.1,13.9-.4,21,0,1.5,0,4.3-2.3,7.1-.5h-.1ZM712.586,189.052h0c-1.9,3.9-6.8,1.2-10,1,1.7-3.1,7.2-.8,10-1Z" fill="#024177"/>
      <path d="M253.586,255.052c-2.5,2-4.6,4.9-7.8,4.4-.3.1-3.4,4.4-5.2.1-.3-.6,10.7-6.4,13-4.5Z" fill="#024177"/>
      <path d="M759.086,189.052c-1.9-1-15-2.1-12.6,2,.2.2,4.5-.9,5.5-.9,2.4-.2,12.1.8,21.5,1.4v-2.5h-14.6.2,0Z" fill="#7096af"/>
      <path d="M661.086,195.052c4.7,1.2-2.6,3.1-5,3.1s-4.1-1.1-6-1.1c-3,0-13.3,2.1-14.5-.5,1.9-2.8,23-1.9,25.5-1.5h0Z" fill="#99b3c8"/>
      <path d="M483.586,211.052c-2.8,4.2-21.5,3.1-27,3,6.1-1.2,20.9-3.7,27-3Z" fill="#a0b7cb"/>
      <path d="M690.586,183.052c-7,1.6-7.9,0-12.5.5-2.4.3-2.3,3-6.5.5l5.3-2.7,13.7,1.7Z" fill="#7e9eba"/>
      <path d="M738.586,191.052c-.8.8-5.2-.9-6.6-.9s-7.8,2.2-6.4-.6c1.8-3.7,5.3-.7,7.9-1,1.4-.2,2.8-1.6,3.6-1.5,1.2.2,2.1,3.4,1.5,4h0Z" fill="#527da2"/>
      <path d="M510.586,209.052c2.9,3.1-4.7.9-5.5.9-3.7.1-7.8,1-11.5,1.1,1.7-3.8,15.4-3.6,17-2h0Z" fill="#7899b6"/>
      <path d="M642.586,185.052c-4.7.2-4.8,3.5-10,0,.6-.1.7-2.8,3-1l-.5-3c2.4,2.8,7.4-.3,7.5,4Z" fill="#799ab7"/>
      <path d="M684.586,188.052c2,5.4-19.1,2.1-10.5,0,3.6-.4,6.9,2.3,10.5,0h0Z" fill="#6289ab"/>
      <path d="M702.586,183.052c-1.8,1.6-10.2,3.4-11,0,1.5-2.3.4-2.1,2.9-1.4s5.4,1.1,8.1,1.4Z" fill="#7e9eba"/>
      <path d="M633.586,190.052c2.9,3.7-10.1,1.4-12,2,.9-2.7,10.2-2,12-2h0Z" fill="#8ba8c0"/>
      <path d="M526.586,201.052c-1.9,2.4-7,3.2-10,3,.2-4.9,6.8-2.5,10-3Z" fill="#799ab7"/>
      <path d="M672.586,195.052c3.6,3.1-8,2.5-9,2-.2-3.6,8.4-2.5,9-2Z" fill="#99b3c8"/>
      <path d="M712.586,189.052c-1.9,3.9-6.8,1.2-10,1,1.7-3.1,7.2-.8,10-1h0Z" fill="#5b86a5"/>
      <path d="M592.586,197.052c.6,3.4-6.2,2.4-8,3,1.4-3.5,4.8-3.2,8-3Z" fill="#84a3bd"/>
      <path d="M545.586,200.052c-1.5,2.4-6.5,1.8-9,2,1.5-3.3,6.2-1.7,9-2Z" fill="#84a3bd"/>
      <path d="M451.586,215.052l-7,1c1.2-2.6,5.7-4.5,7-1Z" fill="#809fbb"/>
      <path d="M550.586,207.052c-1.3-.2-5.6.4-6,0-2.5-2.2,5.2-3.4,6,0Z" fill="#7b9cb8"/>
      <rect x="508.228" y="201.887" width="2" height="4" transform="translate(304.453 712.758) rotate(-89.9)" fill="#9ab3c8"/>
      <path d="M488.586,212.052l-4-.5c1.5-2.2,3.1-1.9,4,.5Z" fill="#a0b7cb"/>
      <path d="M701.586,191.052l-4-1.5c1.5-2.5,2.8-.7,4,1.5Z" fill="#5b86a5"/>
      <path d="M390.586,208.052c-.2,0-1.4.8-3,1l3-1Z" fill="#88a5bf"/>
      <path d="M285.586,217.052c-.1-.1-3.5-.1-2-1,1.2-.7,1.9,1,2,1Z" fill="#8dafba"/>
      <path d="M771.086,170.052l.5,3-3.6-2.7c-6,1.1-13.4-3.5-17.4,2.7l1-4c-4.1,2.8-4.1-.9-4.4-.9-4.7.1-3.3,3.7-3.6,3.9-2.2,2.7-1.9-2.8-2-3-2.4,1.1-3,.8-5.5,0-1.9.2.4,4.1-2,3-1.1-.5,0-2.3-.6-2.8-1.2-1.1-6.9-1.8-4.9,1.8l-7-1,3,1c-2.9,5.2-4.8-2.9-6.5-2.8-3.1,3.9-8.3,0-12.8.8-.8.2-.7,2-1.2,2-1.4.1-6-2.4-8.4-2,2.6,4-3.4,5.9-4,1-3.5-.3-9.1.2-12.3-.2-1.2-.2-4.7-2.7-5.7-1.8-2.2,2.1,4.3,3.6.5,5l-3-4-1,2c-3-4.5-3.5-1.6-6-1.5-2.1,0-12,.8-12.5.5h0l-2,1.5c.6.6,1.1,1.3,2,1.5.2-.5-.5-2.1.5-2,2,1.5,2,2.7-.5,2-.5.8-3.6,1.5-5,2v1c10.6.2,20-1.5,30.4,0,2-4.1.5-.9,2.6,0l.6-2.1c6.3,3.6,13.8-.2,19.9,0,3.1.1,7,4.3,6.5,0,2.1,0-.2,2.6,2.5,2,1-.2.2-1.4.7-1.8,1.4-1.2,5.4,1.8,7.3,1.7,3.5-.2,4.2-.5,8.6-.5s8.1-4.9,6.9.5c3-3.6,5.2-.2,7.5-.4,1,0,2-1.9,4-1.7.5,0,.5,2,1.1,2.1,7-1.5,8.1-3.4,16-.4,2.2.1,7.6-.4,13.2-.6,0-1.2,0-2.3.2-3.5-1,0-2.2-.4-3.6-1.5v.2ZM667.586,171.052h0v3l-8-2c1.2-3.5,5.1,1,8-1h0ZM738.386,173.052c0-1.6,2.5-1.6,2.5,0s-2.5,1.6-2.5,0Z" fill="#44729a"/>
      <path d="M578.586,172.052c1.4-.2,3.6-3.1,3,1.5-.2,1.7-2.8-.5-3-.5v-1Z" fill="#3f6f97"/>
      <path d="M644.586,170.052v1h-3v-1h3Z" fill="#44729a"/>
      <path d="M647.586,170.052l-1.4.9-.6-.9h2Z" fill="#44729a"/>
      <rect x="479.586" y="177.052" width="2" height="1" fill="#638aab"/>
      <rect x="456.586" y="190.052" width="2" height="1" fill="#638aab"/>
      <path d="M649.586,176.052c-.5.1-2.2,2.6-3,0h3Z" fill="#648bac"/>
      <path d="M694.586,171.052l-2.5-3c-.8,0-.6,1.3-.5,2,.6,0,1.6,1.6,3,1Z" fill="#44729a"/>
      <path d="M793.586,189.052h-19.8v2.5c10.5.6,20.6.5,19.9-2.5h-.1Z" fill="#7096af"/>
      <path id="path1_2_center"
      d="M322.086,181.652
         c29.5-5.6,118.4-10,118.4-10
         l121-9.5
         92.6-3.7
         49,1"
      fill="none"/>
    </g>
  </g>
  <g id="Signs">
    <g id="sign_sem_1">
      <path d="M229.586,255.052l1,15c-9.9,2.4-4.8-7.8-11-12,.8-5.5,6.2-2.2,10-3h0Z" fill="#267f6b"/>
      <path d="M213.586,217.052c8.7-7.8,3.4,2.4,4,3,5.7-1.4,6.2,6.1,8,10v2c-1.6,4.3,0,3.3,1,7,.8,2.9,2.4,6,1,9h3c-3.7,1.4-7.6,2.4-12,4,2.9-5.8-.7-10.7-2-16-.6-2.3,1-6.2-2-8,.5-.5.7-2.3,1.5-3,1.3-1.1,3.6-.7,3.5-1.5,0-.3-2.7-.1-5-2.5.5-1.9-1.5-2.6-1-4h0Z" fill="#2c767b"/>
      <path d="M216.586,150.052c-1.4.4-5.2.8-5.8,1.2-2.7,1.9,1.1,10.4,1.7,13.3,1.5,10.4,4.4,20.2,4.6,30.5,3.9,3.8,10.8-9.4,16.5-8-1.4,3.2-16.8,9.9-13.5,13l6.5-4c-.6,2.7-6.4,5-6.9,6.7-1,2.6,3.9,13,.9,17.3-.6-.3-2.7.3-3,0-.6-.6,4.7-10.8-4-3-.5-4.6.2-7.8-3-12,.7-.6,2-.9,1.9-1.5-3-6.9-4.4-14.3-5.9-21.5-2.2-5-2.7-32.4-9-30,8.7,1.2,13.1-3.9,19-2h0Z" fill="#5c85a7"/>
      <rect x="106.574" y="25.051" width="197.096" height="125.707" rx="29.958" ry="29.958" transform="translate(-3.794 9.443) rotate(-2.613)" fill="#fed700" stroke="#000" stroke-miterlimit="10" stroke-width="1"/>
      <rect x="109.051" y="27.764" width="192.052" height="120.469" rx="29.958" ry="29.958" transform="translate(-3.799 9.441) rotate(-2.613)" fill="none" stroke="#000" stroke-miterlimit="10" stroke-width="2"/>
      <g isolation="isolate">
        <g isolation="isolate">
          <text transform="translate(116.428 90.67) rotate(-2.801)" font-family="Arial-BoldMT, Arial" font-size="16" font-weight="700" isolation="isolate"><tspan x="0" y="0">Angewandte knstliche</tspan></text>
        </g>
        <g isolation="isolate">
          <text transform="translate(167.54 107.392) rotate(-2.801)" font-family="Arial-BoldMT, Arial" font-size="16" font-weight="700" isolation="isolate"><tspan x="0" y="0">Intelligenz</tspan></text>
        </g>
      </g>
    </g>
    <g id="sign_bachelor">
      <rect x="1171.451" y="515.204" width="125.707" height="197.096" rx="29.958" ry="29.958" transform="translate(506.28 1784.299) rotate(-84.559)" fill="#fed700" stroke="#000" stroke-miterlimit="10" stroke-width="1"/>
      <rect x="1173.837" y="517.936" width="120.469" height="192.052" rx="29.958" ry="29.958" transform="translate(505.86 1784.257) rotate(-84.559)" fill="none" stroke="#000" stroke-miterlimit="10" stroke-width="2"/>
      <path d="M1218.586,676.052c1.6-.2,3.5-3.2,2.5,1,2.9-1,4.9-.2,7.5,0,.8,16-5.8,32.6-6,49-1.3,3.9-3,6.9-1,11-1.7,1.7-3.5,5.4-3.8,7.7,0,2,2.4,2.6,2.5,3.8-.4,2.7-3.8,10.1-1.7,13.5.5.8,1.9.9,2,1,1,1.6-2.4.6-2.9,1,0,3.2-1.2,6.7-2.1,9.9-2.8.3-5.2-1.3-3-4-1.6,1.1-5.8-.2-6,0-.3-.3-.6-.8-1-1,0-.6-.2-1.8,0-2,4.1.2,2.1-5.8,1-8,0-1.1,4.6-11.2,3-12,.3-1.1,3.3-3.9,1-5,0-7.6,6.8-18,2-25,3.1-.9,1.7-4.7,2.1-7.4,1.2-7.9,2.5-16.2,4-24,.7-3.6,5.2-6.9,0-9.6h0l-.1.1Z" fill="#5e87a6"/>
      <path d="M1206.586,770.052c.2-.2,4.4,1.2,6,0-2.2,2.7.2,4.3,3,4-1.7,7.8-4.1,16.6-2.2,24.4-.4,2.1-1.6.4-1.8,5.6,0,2.5-.7,8.3-3,9.5s-8.6,0-9.1-3c2.3-11.1,5-24.7,4.2-35.8,0-.3,2.6-4.5,2.8-4.7h.1Z" fill="#166e65"/>
      <g isolation="isolate">
        <text transform="translate(1172.42 613.056) rotate(5.27)" font-family="Arial-BoldMT, Arial" font-size="30" font-weight="700" isolation="isolate"><tspan x="0" y="0">Bachelor</tspan></text>
      </g>
    </g>
    <g id="sign_sem_2">
      <rect x="699.5" y=".5" width="197.096" height="125.707" rx="29.958" ry="29.958" fill="#fed700" stroke="#000" stroke-miterlimit="10"/>
      <rect x="702.036" y="2.821" width="192.052" height="120.469" rx="29.958" ry="29.958" fill="none" stroke="#000" stroke-miterlimit="10" stroke-width="2"/>
      <line x1="702.029" y1="62.182" x2="894.081" y2="62.181" fill="none" stroke="#000" stroke-miterlimit="10" stroke-width="2"/>
      <path d="M801.586,127.052c-.4,1.5-2.2,4.2-2.1,5.4,0,.6,2.1.5,2.1,1.1-1.6,7.8-3.3,18.8,1,26.4-1.5.5-.8-3.9-3-2-.9.8,0,9.3.6,10.8s2.3,1.2,3.3,2.2c-5.3-1.1-1.3,2.6-2,3-.5.3-7.1-6.2-11-3,1.9-7.3-.8-21.2.4-28.4.8-5,.9-3.3.9-8.3s3.4-7-3.3-8.4c4.4,0,8.4.9,13,1h0v.2s.1,0,.1,0Z" fill="#628aaa"/>
      <path d="M798.586,206.052c-.9,4.8,5,3.9,5,4.5,0,2.7-3.7,1.7-5.2,4.9-1.1,2.6.3,6.4,0,9.6-2.2,5.5-1.4,15.2,0,21-.7.8-5.8,3.7-6,4-6.4-3.5-2.8-5.7-2.9-9.4,0-.7-1.9-.5-2-.6-1.5-2,2.6-2.7,2.8-3.1-1.4-3.3-.7-6.5,0-9.4,0-3-2.2-5.6-.9-10.5,4.5-1.7-.9-9.7-2-13,3.1.2,8.2,1.2,11,2h.2Z" fill="#297874"/>
      <g isolation="isolate">
        <text transform="translate(713.715 102.934) rotate(-1.025)" font-family="Arial-BoldMT, Arial" font-size="30" font-weight="700" isolation="isolate"><tspan x="0" y="0">1. Semester</tspan></text>
      </g>
      <line x1="709.065" y1="112.012" x2="893.216" y2="63.928" fill="none" stroke="red" stroke-miterlimit="10" stroke-width="4"/>
      <g isolation="isolate">
        <text transform="translate(713.414 43.072) rotate(-.634)" font-family="Arial-BoldMT, Arial" font-size="30" font-weight="700" isolation="isolate"><tspan x="0" y="0">2. Semester</tspan></text>
      </g>
    </g>
    <g id="sign_sem_3" data-name="sign_sem_3">
      <path d="M1199.586,433.052c2.6-8.9,5.5-18.4,1-27,7.4.5-2.4-4,3.1-5.6-.2-2.5-2.1-9.6,1.9-9.4.4-.6-1.7-1.6-1.7-2.5s1.7-1.5,1.8-3c0-.6-2.1-.5-2.1-1,0-1.5,1.9-3,2-5,.2-3.4-.4-3.8.5-8.3.2-1-.7-2.9-.5-3.1,3.3-3.1,3.3,9.8,1,11,5.2-.5,1.9.9,2.3,3.4,4,4-2.6,10.4.7,15.6-1,9.7-1.6,19.8,0,30,0,.2-.9,1.3-1,3,.3,1.9-.5,2.4-1.4,4.2.6,3.5.4,7.2.4,10.8-5.9-1.8.3-6.6-1-8-.7-.7-6.6,4.2-9,0-.2-4.5-.3-1.6,2-5h0v-.1h0Z" fill="#276088"/>
      <path d="M1217.586,363.052c-6.6-.5-2.8.6-3.3,3.4-1.1,10.2-2.7,21.2-4.7,31.6-3.3-5.2,3.3-11.6-.7-15.6-.4-2.4,2.9-3.8-2.3-3.4,2.3-1.2,2.3-14.1-1-11-.2.2.7,2.1.5,3.1-1.1,7.2.6,7.1-2.5,13.4,0,.5,2.1.4,2.1,1,0,1.5-1.8,2.3-1.8,3,4.9,6-3-3.1-.2,11.9-5.4,1.6,4.3,6.1-3.1,5.6,4.5,8.6,1.6,18.1-1,27,0-23.2-.5-46.9,5.1-69.4l-7.1-2.6c6.6.6,13.9.6,20,2h0Z" fill="#6088a8"/>
      <path d="M1197.586,438.052c2.4,4.3,8.3-.7,9,0,1.3,1.4-4.9,6.2,1,8,0,3.2,0,6.4-.8,9.5l.8,1.5c-4.2,7.4,1.7,38.6-13,29-.4-.6,1.5-1.5,1.6-2.5-1.8-4.5-.4-11.8-.7-17,6.7-1,.8-3.3.5-6,.6-6.2.6-16.1,1.6-22.5h0Z" fill="#0a5e68"/>
      <rect x="1109.5" y="239.5" width="197.096" height="125.707" rx="29.958" ry="29.958" fill="#fed700" stroke="#000" stroke-miterlimit="10"/>
      <rect x="1112.036" y="241.821" width="192.052" height="120.469" rx="29.958" ry="29.958" fill="none" stroke="#000" stroke-miterlimit="10" stroke-width="2"/>
      <line x1="1112.029" y1="301.182" x2="1304.081" y2="301.181" fill="none" stroke="#000" stroke-miterlimit="10" stroke-width="2"/>
      <g isolation="isolate">
        <text transform="translate(1125.708 338.737) rotate(-.298)" font-family="Arial-BoldMT, Arial" font-size="30" font-weight="700" isolation="isolate"><tspan x="0" y="0">2. Semester</tspan></text>
      </g>
      <g isolation="isolate">
        <text transform="translate(1126.515 284.341) rotate(-.026)" font-family="Arial-BoldMT, Arial" font-size="30" font-weight="700" isolation="isolate"><tspan x="0" y="0">3. Semester</tspan></text>
      </g>
      <line x1="1119.065" y1="351.012" x2="1303.216" y2="302.928" fill="none" stroke="red" stroke-miterlimit="10" stroke-width="4"/>
    </g>
    <g id="sign_sem_6">
      <path d="M506.886,602.252c-3.1.4-6.2.4-9.3-.4,0,22.1-3.3,43.3-3.3,65.7,0,4.5-3.9,19.4,5.8,13.6,5.7-3.5,1.8-9,1.8-13.5-.2-20.1,4.5-45,5-65.4h0Z" fill="#5882a5"/>
      <path d="M493.586,597.052h0c0-1.8.5-3.7.9-5.5-6.2,0-14.6-1-11.9-3.5.9.3,7.6.2,12.6.6.8-3.1,1.6-6.2,1.9-9.6,6-1,12,1,18,1-6,0-12-2-18-1-.3,3.4-1.1,6.6-1.9,9.6,3.7.3,6.5,1,5.4,2.4-.3.3-2.9.5-6.1.5-.4,1.9-.7,3.7-.9,5.5,1.4.9,2.6,1.1,4,0-.3-2,0-2.3,2-2l1,3c-.5-2.9,3.7-6.9,4-2l-3,1c5.5,2.7,3.4-3.6,8,0,.5.2,1.4-.2,2,0-4.1-3.2,1.9-3.1,4.3-2.6.4,0,.7,0,1,.2-.2-.2-.5-.4-.8-.6.4-.7.8-1.5,1.1-2.2h-5.3c-3.9,0-9.6-2.5-1.9-2.9,2.7,0,5.3-.2,8-.3.5-3.1,0-6.2,0-9.4-23.2-1-46.5-2.1-68.1-.4-6.8.5-13.8-2.4-19.1-3.9-7.5-2.2-7.8,1.6-17.3-5.1-4,2.7-6.4-2-10-2-.6,1.2,4.3,1.2,2,3-2,1.5-2.7-1.9-5-2-2.9-.7-1.9,1.4-4.9,2.5-.6,0-1.8-.5-3.1-.9.8.5,2.5.7,2.5,1.4,0,8.1,2,15.5,5,22.6,1.1-.3,2.1-.5,3-.6,2.1,5,5.1.7,8.7.2,2.8,0,8.3,1.7,10.7,1.7,9.8.9,21.6-4,31-1,.9,0,1.9-1.8,2.5-2,.7-.3.9,2.9,2,3,2.3-2.4,5.6-1.8,8.7-1.5,3.7-.3,7.4-3,9.9,1.6h1c3.3-.2-2.5-2.1-.5-3,2.3,1.2,8.1-.8,7.5,3,.5.3,10.1-5.7,9,1h0l.1.2h0ZM448.586,589.052c-6.3,5.6-25.6,2.5-34.5,2.9-4.2,0-10.2,2.4-14.5-.5,16.1-2.8,32.6-1.4,49-2.5h0v.1ZM449.586,589.052c10.5-2.5,20.5.4,31,0-.3,3.3-31.6,4-31,0Z" fill="#014177"/>
      <path d="M596.886,591.052c-26.5-.6-53.2.3-79.7.8-.3.7-.6,1.5-1.1,2.2.3.2.6.4.8.6,1.2.2,2,.5,1.7,2.4.6-.3,1.3-3.5,3-2,.2.2-1.9,2-1.7,3.2.4.2.8.4,1.2.8h0c1,.2,0-2.1,1-2,2,0,2.7,3.1,3.5,1,.7-2.4-1.8-2.1-2.5-3-2.1-2.6,7.6-.9,8.5-2l-1,4c3.3.9,1.1-2.2,2.6-3,1.2-.6,5.4-.6,7-.5,3.7.2,6.6-.5,4.4,3.6,4.3-6.6,12.7-.6,18.4.9,1.8,0,7.6-1.4,8.6-.9.3.2-3.3,4.8,5-.5l-2.5-2.5c2.7-.4,5.2,3.5,6.3,4,.5.2,8.3,1,8.7.8.3,0,2.1-2.5,5-2.8.5,4.2,1.7,3.4,2.9,2.1v-7.2h-.1Z" fill="#014177"/>
      <path d="M517.986,588.752c26.1-.7,52.9.2,78.9.8,0-3.2,0-6.4.2-9.6,0-1.6,2-2.6,2.7-4l-.3.5-13-.5c-1.5,1-3.4,2.8-3.7,3-20.6,2-42.6,1.3-64.7.4,0,3.1.4,6.2,0,9.4h-.1Z" fill="#014177"/>
      <path d="M399.586,595.809c14.609,7.838,34.995,1.351,49.264,1.351,30.238-1.351,95.81,7.027,117.215-8.108-55.719,2.973-111.779-.811-166.479,6.757h0Z" fill="#8ca9c1"/>
      <path d="M422.586,596.052c-2.4,0-7.7-1.8-10.7-1.7s-4.9,3.5-7.6,1.7c-.7-.5-.6-1.9-1.1-1.9-.9,0-2,.3-3.1.6.6,1.5,1.3,2.9,2,4.4,1.6.4,5.9,2.3,7.8,1.9.7,0,.5-1.8,1.1-1.8s2.8,1.2,4.1,0l1,1.8c.7-4.4,2.6.7,3.5,0,.5-.5-1.4-.7,2-2,.5-.2,1.4,0,2,0l-1-3h0Z" fill="#678dac"/>
      <path d="M439.586,599.052c-7.4-1.2,2.8-5.5,2-1-1.4,0-1.6.8-2,1Z" fill="#407296"/>
      <path d="M480.586,589.052c-.1,3.2-31.5,4.1-31,0,10.5-2.5,20.5.4,31,0Z" fill="#8ca9c1"/>
      <path d="M495.186,588.652c-.2,1-.5,1.9-.7,2.9,3.2,0,5.8-.2,6.1-.5,1.1-1.4-1.7-2-5.4-2.4h0Z" fill="#8ca9c1"/>
      <path d="M506.886,602.252v-1.5l2.7-3.7c-4.5-3.6-2.5,2.7-8,0l3-1c-.3-4.9-4.5-.9-4,2l-1-3c-2-.3-2.3,0-2,2h0v4.8c3.1.8,6.2.8,9.3.4Z" fill="#5882a5"/>
      <path d="M482.586,588.052c-2.7,2.5,5.7,3.5,11.9,3.5.2-.9.4-1.9.7-2.9-5-.4-11.7-.3-12.6-.6h0Z" fill="#8ca9c1"/>
      <path d="M525.586,598.052c.7-2.4-1.8-2.1-2.5-3-2.2-2.6,7.6-.9,8.5-2l-1,4c3.3.8,1.1-2.3,2.6-3,1.2-.6,5.4-.6,7-.5,3.7.3,6.6-.5,4.4,3.6,3.3-5.8,11.2-1.7,16,0h-4.4c-1,.2-.2,2.3-1.1,2-1.5-.6-1.6-2.3-5-2.1-1.7,0-1.5,3-5.6,2.6-3.1-.3-7.7-1.4-4.9-4.5l-3-1c.7,5.4-6.8,3.5-11,4h0v-.1Z" fill="#638aab"/>
      <path d="M603.286,569.952c-.3,0-.5-.3-.7-.6,0,0-.3-.2-.4-.3h-2.7c-.8,0-.3.5-.7.6.3,1.8.8,3.6,1.3,5.4h.4l-.7,1c-.7,1.4-2.7,2.4-2.7,4,0,3.2-.2,6.4-.2,9.6h4.2c.2-4.1.8-8.2,2-12.6-.4-.2-.8-.5-.8-1.1s.7-1.2,1.3-1.2c0-.3.2-.6.3-1v-2.6c0-.5-.3-.9-.7-1.3h0l.1.1h0Z" fill="#014177"/>
      <path d="M429.586,598.052c3.8-5.7,9.2,3.7,3.5,2-1.1-.4.5-4.4-2.5,0l-1-2h0Z" fill="#356694"/>
      <path d="M442.586,598.052c-.1-4.1,4.4-2.5,3,2-1.4-.3-2.5-1.8-3-2Z" fill="#407296"/>
      <path d="M519.886,598.252c0,.4.4.7,1.2.8h0c-.4-.4-.8-.6-1.2-.8Z" fill="#014177"/>
      <rect x="404.5" y="458.5" width="197.096" height="125.707" rx="29.958" ry="29.958" fill="#fed700" stroke="#000" stroke-miterlimit="10"/>
      <rect x="407.036" y="460.821" width="192.052" height="120.469" rx="29.958" ry="29.958" fill="none" stroke="#000" stroke-miterlimit="10" stroke-width="2"/>
      <line x1="407.029" y1="520.182" x2="599.081" y2="520.181" fill="none" stroke="#000" stroke-miterlimit="10" stroke-width="2"/>
      <g isolation="isolate">
        <text transform="translate(416.835 559.951) rotate(-1.173)" font-family="Arial-BoldMT, Arial" font-size="30" font-weight="700" isolation="isolate"><tspan x="0" y="0">5. Semester</tspan></text>
      </g>
      <line x1="415.065" y1="571.012" x2="598.216" y2="521.928" fill="none" stroke="red" stroke-miterlimit="10" stroke-width="4"/>
      <g isolation="isolate">
        <text transform="translate(416.673 508.263) rotate(-.026)" font-family="Arial-BoldMT, Arial" font-size="30" font-weight="700" isolation="isolate"><tspan x="0" y="0">6. Semester</tspan></text>
      </g>
    </g>
    <g id="sign_sem_7">
      <path d="M875.586,480.052l-1,3h3c-3.1,3.7-1.8,6.6-2.1,10.3-.4,4.5-1.3,9.2-1.8,13.4-.2,1.5,2.4,2.9,1.8,4.8-.4,1.2-2.9,1.2-3.1,2.2,1.8,7.8.3,18.9,1.1,27.3-3.5,5.5-.8,7.4-1,13l-5,2.5,3,3c.5,3-1.8,0-2,.5-1,2,3.7,3,.5,5l-4.5-2.1c1.3-2.4,0-5.3,0-6.9.2-8.6,2.8-17,.9-25.5,0-1.9,2-1.4,2-1.9-.4-2.1-1.2-5.9-.9-8.6,3.1-1.2-1.2-11,0-14.5.6-5.4.6-8.9,1-13.9,0-.7,2-.5,2-1.2s-1-5.1-1.2-5.3c-1.7-.5-3.3.6-2.8-2.2,3.5,0,4.5.9,4-3h6.1v.1h0Z" fill="#286a7f"/>
      <path d="M876.586,573.052c.7-1.1,0-2.4,0-3l-5-1c-.2-2.1,3.5-.5,4-1,1-1-.8-5.3-2.5-6-3.7-.6.9,6-3.5,5-.6,1.3,1.2,4.8,1.1,4.9h-6c0,.8.2,1.7.3,2.5,2.2.4,3.3,1.2,1.7,2.6,5,.4,10,.9,14.9,1.3,0-1.7,0-3.5.2-5.2-1.7-.3-3.5-.4-5.2,0h0v-.1Z" fill="#346892"/>
      <path d="M872.586,554.052c-.6,7.1-2.6,15.7-3,23l-5-1c-.2-2.1,3.5-.5,4-1,1-1-.8-5.3-2.5-6-3.7-.6.9,6.1-3.5,5,4.8-6-3-13.2,2-18,0,1.6,1.3,4.5,0,6.9l4.5,2.1c3.2-2-1.5-3-.5-5,.2-.3,2.5,2.5,2-.5l-3-3,5-2.5h0Z" fill="#7c9db8"/>
      <rect x="770.5" y="357.5" width="197.096" height="125.707" rx="29.958" ry="29.958" fill="#fed700" stroke="#000" stroke-miterlimit="10"/>
      <rect x="773.036" y="359.821" width="192.052" height="120.469" rx="29.958" ry="29.958" fill="none" stroke="#000" stroke-miterlimit="10" stroke-width="2"/>
      <line x1="773.029" y1="419.182" x2="965.081" y2="419.181" fill="none" stroke="#000" stroke-miterlimit="10" stroke-width="2"/>
      <g isolation="isolate">
        <text transform="translate(785.824 458.85) rotate(-1.104)" font-family="Arial-BoldMT, Arial" font-size="30" font-weight="700" isolation="isolate"><tspan x="0" y="0">6. Semester</tspan></text>
      </g>
      <line x1="781.065" y1="470.012" x2="964.216" y2="420.928" fill="none" stroke="red" stroke-miterlimit="10" stroke-width="4"/>
      <g isolation="isolate">
        <text transform="translate(788.433 407.275)" font-family="Arial-BoldMT, Arial" font-size="30" font-weight="700" isolation="isolate"><tspan x="0" y="0">7. Semester</tspan></text>
      </g>
    </g>
    <g id="sign_sem_5" data-name="sign_sem_5">
      <path d="M113.586,459.052c-2.6,2.3-9.6,0-12.4,1.1-3.8,1.3-1.1,12-1,15.3.7,11.5-1.6,23.5.4,33.6,2.1.4-.3-2.5,3-2-.2,3.4-3.4,2.7-4.5,4-.3.4.4,1.5.2,1.8-.4.6-2.6.9-2.7,1.7,3.1,1.6.2,5.7,0,8,0,.8,3.1,0,2.1,2.5h-4c0,2,3.8,2.6,4,3.6,0,.4-1.1,7.5-1.2,7.9-.3.8-1.4.4-1.6.6-1.1,1.5,3.8,4.5,3.5,7.4-.1,1.1-3.2,2.9-2.7,3.5,1.2,1.1,6.2-6,6-.5-.9,1.4-3-.6-1,2.5-.2.2-1.7-.6-2,.5-.6,2.3,1.8,1.3,2,1.5,1.7,2.3-1.6,1.8-2,2-1.2.8,1.8.9,2,1.6.2.8-1.4,3.9-.8,5.6.5,1.4,5.3,5.3,4.8,5.7-2.4,2.1-4.3-3.8-5-3-2.8,3.5-.3,5.4-.3,7.3-.4,4.7-1.5,4.9,1.3,8.7-3.7-.3-1.1,1.6-1,3-.8.5-3.8-1.3-3,2-2.1,0-3.6.3-4.9-1.6-2.8-3.9.7-5.7.5-7.5s-2.4-1.9-2.4-2.4c0-1.1,1-2.9,1-5.1-1.7-20.4.3-43,1.6-63.1,0-4.4-1.8-14.9-.7-18.8.4-1.5,3.5,1.1,0-4.1.5-3,2.3-20.7,1.6-21.5-.9-1.1-3.6-.5-4.6-1.9,8.1,0,15.9-.6,24,0h-.2v.1h0Z" fill="#648aab"/>
      <rect x=".5" y="336.5" width="197.096" height="125.707" rx="29.958" ry="29.958" fill="#fed700" stroke="#000" stroke-miterlimit="10"/>
      <rect x="3.036" y="338.821" width="192.052" height="120.469" rx="29.958" ry="29.958" fill="none" stroke="#000" stroke-miterlimit="10" stroke-width="2"/>
      <line x1="3.029" y1="398.182" x2="195.081" y2="398.181" fill="none" stroke="#000" stroke-miterlimit="10" stroke-width="2"/>
      <g isolation="isolate">
        <text transform="translate(14.703 436.602) rotate(-.256)" font-family="Arial-BoldMT, Arial" font-size="30" font-weight="700" isolation="isolate"><tspan x="0" y="0">4. Semester</tspan></text>
      </g>
      <line x1="10.065" y1="448.012" x2="194.216" y2="399.928" fill="none" stroke="red" stroke-miterlimit="10" stroke-width="4"/>
      <g isolation="isolate">
        <text transform="translate(16.673 380.262) rotate(-.026)" font-family="Arial-BoldMT, Arial" font-size="30" font-weight="700" isolation="isolate"><tspan x="0" y="0">5. Semester</tspan></text>
      </g>
    </g>
    <g id="sign_sem_4">
      <rect x="534.5" y="212.5" width="197.096" height="125.707" rx="29.958" ry="29.958" fill="#fed700" stroke="#000" stroke-miterlimit="10"/>
      <rect x="537.036" y="214.821" width="192.052" height="120.469" rx="29.958" ry="29.958" fill="none" stroke="#000" stroke-miterlimit="10" stroke-width="2"/>
      <line x1="537.029" y1="274.182" x2="729.081" y2="274.181" fill="none" stroke="#000" stroke-miterlimit="10" stroke-width="2"/>
      <path d="M636.586,389.052c-3.7.9-8.6,4.1-8-2h0c-.5-.6-5.9-1.9-3.2.8-5.4,5.6-10.8,4.8-15.3,4.3v5c.7-.5,1.5-.9,2.2-1.1.9-.2,9-1.3,9.4-1.1,1.9,1.4-1,5.2-1,6.5s1.6,2.3,1.6,3c-1.9,2.4-2,7,0,10.5.8,1.2,5.8,1.9-.5,2,3,6.4.6,4.2,0,5.7-.3.8-2.1,8.3-2.1,8.7,5.6,1.8-1.5,7.3,3.1,8-1.6,1.4-2.4,7.1-2,8.9.2,1,3.1-.2,1,3.7,9.8.6,5.4-.2,5-5.5,4.3-12.6-.3-28.4,1-41.9,0-.7,2-.5,2-1,0-2.1-2.6-5.6-1-8.9.2-.5,7.2-1.8,9-2.6,4.6-2,3.8-1.7-1-3h-.2Z" fill="#5a83a6"/>
      <path d="M638.586,333.052l-10,2c-.2,1.7,2,6.6,2,7,.3,3.8-3.2,8.5-1,12-2.9.4-5.1.7-8,1,4.9-1,1.8-5.2,1-9,.6,0,1.9.1,2,0,.2-.2-.9-4.8-1-5,1.8-2.6,1.8-6,1-9,4.2.1,9.2.9,14,1h0Z" fill="#477896"/>
      <path d="M644.486,371.952c-1.7,0-3.3.1-4.9,0h0c-3.8,2.8-4,1.2-7.3,2-.5.1-1.9,4.2-5.7-1,5.9,1.2,3.3-2.2,4-3,.3-.4,3.3,1.1,4.5,1.1,2.7,0,2.3-1.7,6.5-1.1.8.1,1.8,0,2.9,0-.2-6.1-.4-12.1-.6-18.2-.7,0-1.5.2-2.2.3-.7,1.1-2.7,1.6-3,0-8.4,2-18.5,3.5-28,4-.2.1-.3.2-.5.4v5c3.1-1.9,8.1-.7,10.8-1.4.8-.2.7-3.1,1.6-2,0,0,0,1,.4,1.6,5.9,2.7-7.8,3.6-12.8,3.5v11c5.2-1.3,14.4-3.4,14.3-.6,0,4.3-11.2,2.2-14.3,2.4v9c1.6-.8,1.6,4.1,3.4,2,.6-.7-1.2-4.9,2-2.4,0,0,0,1.2.5,1.4,2.9.8,2.2-1.8,3.2-2,3.6-1,3.2,1.5,5.4,3,0-1.8,3.9-.2,4,0,.5-.2.7-.8,1-1,1-.7,3-.9,3-1.5,0-1.2-4.1.8-3-2.5,1.3-.6,4.7,1,4.9.9,1.2-.9.4-4.7,5.9-2.2,1.6.7.6,2.5,2.2,2.3,1.1-5.1,1.3-4.1,2.2-3,0-2.7-.2-5.4-.3-8.1h-.1v.1h0ZM641.586,357.052c-3,3.6-8.6,4.4-13,4,2-4.5,8.8-2.9,13-4Z" fill="#014177"/>
      <path d="M607.186,374.952v3.1h.7c.8,0,.2-1.8,2-2,2.6-.4,14.4,2,14.5-2.4,0-3.5-14.5.7-17.3,1.3h.1Z" fill="#7296b3"/>
      <path d="M641.386,370.352v-.3c-3.9-.6-3.7,1.1-6.3,1.1s-4.2-1.4-4.5-1.1c-.7.8,1.9,4.2-4,3,3.8,5.2,5.2,1.1,5.7,1,3.3-.3,6.4-.4,9.1-3.8h0v.1h0Z" fill="#7296b3"/>
      <path d="M624.586,387.052c-2.2-1.5-1.7-4-5.4-3-.9.3-.2,2.8-3.2,2-.5-.1-.4-1.3-.5-1.4-3.2-2.5-1.5,1.7-2,2.3-1.8,2.2-1.8-3.1-3.5-2l-2.9,2.9v2.7c3.6-.6,6.5-1.3,7.7-1.6,2.2-.7-1.6-2.7,4.7-.3,1.7.6,3.5-4.5,3,1.4.4-.3,2.7-2,2.8-2.2,0-.3-.8-.7-.8-.8h.1Z" fill="#7698b5"/>
      <path d="M640.886,386.052c.5-.1.7-.2.9-.3,0-1.2-.3-2.4-.3-3.6s-.3-1.1-1.1-1.4c-5.6-2.5-4.7,1.3-5.9,2.2-.2.2-3.6-1.5-4.9-.9-1,3.3,3.1,1.3,3,2.5,0,.6-2,.8-3,1.5,2.5-.2,9.6.4,11.3,0h0Z" fill="#7194b2"/>
      <path d="M644.386,370.052v1.9c1.2,0,2.5-.2,3.7-.4v-2.1c-1.3.3-2.6.5-3.7.6Z" fill="#5d85a8"/>
      <g isolation="isolate">
        <text transform="translate(547.936 310.734) rotate(-.415)" font-family="Arial-BoldMT, Arial" font-size="30" font-weight="700" isolation="isolate"><tspan x="0" y="0">3. Semester</tspan></text>
      </g>
      <line x1="544.065" y1="324.012" x2="728.216" y2="275.928" fill="none" stroke="red" stroke-miterlimit="10" stroke-width="4"/>
      <g isolation="isolate">
        <text transform="translate(548.949 260.387) rotate(-.026)" font-family="Arial-BoldMT, Arial" font-size="30" font-weight="700" isolation="isolate"><tspan x="0" y="0">4. Semester</tspan></text>
      </g>
    </g>
  </g>
</svg>